<?xml version="1.0" encoding="utf-8"?>
<!-- Generator: Adobe Illustrator 24.3.0, SVG Export Plug-In . SVG Version: 6.00 Build 0)  -->
<svg version="1.1" id="Слой_1" xmlns:fi="http://pattern.flaticon.com/"
	 xmlns="http://www.w3.org/2000/svg" xmlns:xlink="http://www.w3.org/1999/xlink" x="0px" y="0px" viewBox="0 0 2160 1080"
	 style="enable-background:new 0 0 2160 1080;" xml:space="preserve">
<style type="text/css">
	.st0{fill:none;}
	.st1{fill:#262F38;}
	.st2{opacity:5.000000e-02;}
	.st3{fill:url(#SVGID_1_);}
	.st4{fill:url(#SVGID_2_);}
	.st5{fill:url(#SVGID_3_);}
	.st6{fill:url(#SVGID_4_);}
</style>
<pattern  y="1080" width="450" height="450" patternUnits="userSpaceOnUse" id="pattern_L1_10" viewBox="187.7 -937.3 450 450" style="overflow:visible;">
	<g>
		<rect x="187.7" y="-937.3" class="st0" width="450" height="450"/>
		<g>
			<g id="L1_10_17_" transform="matrix(0.1171875 0 0 0.1171875 204 -29)">
				<path d="M-1115.4-81.7h-11v263.3h11c18.2,0,32.9,14.7,32.9,32.9s-14.7,32.9-32.9,32.9h-592.5c-18.2,0-32.9-14.7-32.9-32.9
					s14.7-32.9,32.9-32.9h11V-81.7h-11c-18.2,0-32.9-14.7-32.9-32.9s14.7-32.9,32.9-32.9h592.5c18.2,0,32.9,14.7,32.9,32.9
					S-1097.2-81.7-1115.4-81.7z M-1707.9,203.6c-6.1,0-11,4.9-11,11c0,6.1,4.9,11,11,11h592.5c6.1,0,11-4.9,11-11s-4.9-11-11-11
					H-1707.9z M-1148.3,181.6V-81.7H-1675v263.3H-1148.3z M-1115.4-125.6h-592.5c-6.1,0-11,4.9-11,11s4.9,11,11,11h592.5
					c6.1,0,11-4.9,11-11C-1104.5-120.6-1109.4-125.6-1115.4-125.6z"/>
				<path d="M-1554.3-4.1c6.1,0,11,4.9,11,11v53.7l32.9-14v-65.5l0-0.1c0-1.4,0.3-2.8,0.8-4.1c0.8-1.2,1.5-2.4,2.3-3.5
					c1-1,2.2-1.9,3.6-2.4l54.6-23.2c24-10.1,51-10.1,75,0l54.5,23.1c1.3,0.6,2.5,1.4,3.6,2.4c0.8,1.2,1.6,2.3,2.3,3.5
					c0.5,1.3,0.8,2.7,0.8,4.1l0,0.1v65.5l43.5,18.5c7,3.2,11.4,10.2,11.4,17.9c0,7.7-4.4,14.6-11.4,17.9l-135.4,57.5
					c-4.3,1.9-9.3,1.9-13.6,0l-135.4-57.5c-7-3.1-11.5-10.2-11.4-17.9V6.8C-1565.2,0.8-1560.3-4.1-1554.3-4.1z M-1334.9-11.7
					l-47.8-20.3c-18.5-7.8-39.4-7.8-58,0l-47.8,20.3v48.9l70-29.7c4.3-1.9,9.3-1.9,13.6,0l70,29.7L-1334.9-11.7L-1334.9-11.7z
					 M-1411.7,137.4l128.2-54.5l-44.6-19l-0.1,0l-83.5-35.5l-83.5,35.5l-0.1,0l-44.6,19L-1411.7,137.4z"/>
				<path d="M-1104.5-345h-21.9v14.1c-0.3,27.8-16.2,53-41.2,65.2c17.5,14.9,23.8,39.1,15.9,60.7c-7.9,21.6-28.5,35.9-51.5,35.9
					s-43.5-14.3-51.5-35.9c-7.9-21.6-1.6-45.8,15.9-60.7c-25-12.2-40.9-37.4-41.2-65.2V-345h-54.9v14.1c-0.3,27.8-16.2,53-41.2,65.2
					c17.5,14.9,23.8,39.1,15.9,60.7c-7.9,21.6-28.5,35.9-51.5,35.9c-23,0-43.5-14.3-51.5-35.9c-7.9-21.6-1.6-45.8,15.9-60.7
					c-25-12.2-40.9-37.4-41.2-65.2V-345h-54.9v14.1c-0.3,27.8-16.2,53-41.2,65.2c17.5,14.9,23.8,39.1,15.9,60.7
					c-7.9,21.6-28.5,35.9-51.5,35.9c-23,0-43.5-14.3-51.5-35.9c-7.9-21.6-1.6-45.8,15.9-60.7c-25-12.2-40.9-37.4-41.2-65.2V-345
					h-21.9c-12.1,0-21.9-9.8-21.9-21.9v-21.9c0-12.1,9.8-21.9,21.9-21.9h614.4c12.1,0,21.9,9.8,21.9,21.9v21.9
					C-1082.5-354.8-1092.3-345-1104.5-345z M-1203.2-191.4c18.2,0,32.9-14.7,32.9-32.9s-14.7-32.9-32.9-32.9
					c-18.2,0-32.9,14.7-32.9,32.9C-1236.1-206.1-1221.4-191.4-1203.2-191.4z M-1258.1-330.9c1.7,29,25.8,51.7,54.9,51.7
					s53.1-22.7,54.9-51.7V-345h-109.7L-1258.1-330.9L-1258.1-330.9z M-1411.7-191.4c18.2,0,32.9-14.7,32.9-32.9
					s-14.7-32.9-32.9-32.9c-18.2,0-32.9,14.7-32.9,32.9C-1444.6-206.1-1429.8-191.4-1411.7-191.4z M-1466.5-330.9
					c1.7,29,25.8,51.7,54.9,51.7s53.1-22.7,54.9-51.7V-345h-109.7L-1466.5-330.9L-1466.5-330.9z M-1620.1-191.4
					c18.2,0,32.9-14.7,32.9-32.9s-14.7-32.9-32.9-32.9c-18.2,0-32.9,14.7-32.9,32.9C-1653-206.1-1638.3-191.4-1620.1-191.4z
					 M-1675-330.9c0.9,29.4,25.4,52.5,54.9,51.7c29.4,0.8,53.9-22.3,54.9-51.7V-345H-1675V-330.9z M-1718.8-388.9v21.9h614.4l0-21.9
					H-1718.8z"/>
			</g>
		</g>
		<g>
			<g id="L1_10_16_" transform="matrix(0.1171875 0 0 0.1171875 204 -29)">
				<path d="M2724.6-81.7h-11v263.3h11c18.2,0,32.9,14.7,32.9,32.9s-14.7,32.9-32.9,32.9h-592.5c-18.2,0-32.9-14.7-32.9-32.9
					s14.7-32.9,32.9-32.9h11V-81.7h-11c-18.2,0-32.9-14.7-32.9-32.9s14.7-32.9,32.9-32.9h592.5c18.2,0,32.9,14.7,32.9,32.9
					S2742.7-81.7,2724.6-81.7z M2132.1,203.6c-6.1,0-11,4.9-11,11c0,6.1,4.9,11,11,11h592.5c6.1,0,11-4.9,11-11s-4.9-11-11-11
					H2132.1z M2691.6,181.6V-81.7H2165v263.3H2691.6z M2724.6-125.6h-592.5c-6.1,0-11,4.9-11,11s4.9,11,11,11h592.5
					c6.1,0,11-4.9,11-11C2735.5-120.6,2730.6-125.6,2724.6-125.6z"/>
				<path d="M2285.7-4.1c6.1,0,11,4.9,11,11v53.7l32.9-14v-65.5l0-0.1c0-1.4,0.3-2.8,0.8-4.1c0.8-1.2,1.5-2.4,2.3-3.5
					c1-1,2.2-1.9,3.6-2.4l54.6-23.2c24-10.1,51-10.1,75,0l54.5,23.1c1.3,0.6,2.5,1.4,3.6,2.4c0.8,1.2,1.6,2.3,2.3,3.5
					c0.5,1.3,0.8,2.7,0.8,4.1l0,0.1v65.5l43.5,18.5c7,3.2,11.4,10.2,11.4,17.9c0,7.7-4.4,14.6-11.4,17.9l-135.4,57.5
					c-4.3,1.9-9.3,1.9-13.6,0l-135.4-57.5c-7-3.1-11.5-10.2-11.4-17.9V6.8C2274.7,0.8,2279.6-4.1,2285.7-4.1z M2505.1-11.7
					l-47.8-20.3c-18.5-7.8-39.4-7.8-58,0l-47.8,20.3v48.9l70-29.7c4.3-1.9,9.3-1.9,13.6,0l70,29.7L2505.1-11.7L2505.1-11.7z
					 M2428.3,137.4l128.2-54.5l-44.6-19l-0.1,0l-83.5-35.5l-83.5,35.5l-0.1,0l-44.6,19L2428.3,137.4z"/>
				<path d="M2735.5-345h-21.9v14.1c-0.3,27.8-16.2,53-41.2,65.2c17.5,14.9,23.8,39.1,15.9,60.7c-7.9,21.6-28.5,35.9-51.5,35.9
					c-23,0-43.5-14.3-51.5-35.9c-7.9-21.6-1.6-45.8,15.9-60.7c-25-12.2-40.9-37.4-41.2-65.2V-345h-54.9v14.1
					c-0.3,27.8-16.2,53-41.2,65.2c17.5,14.9,23.8,39.1,15.9,60.7c-7.9,21.6-28.5,35.9-51.5,35.9s-43.5-14.3-51.5-35.9
					s-1.6-45.8,15.9-60.7c-25-12.2-40.9-37.4-41.2-65.2V-345h-54.9v14.1c-0.3,27.8-16.2,53-41.2,65.2c17.5,14.9,23.8,39.1,15.9,60.7
					c-7.9,21.6-28.5,35.9-51.5,35.9c-23,0-43.5-14.3-51.5-35.9c-7.9-21.6-1.6-45.8,15.9-60.7c-25-12.2-40.9-37.4-41.2-65.2V-345
					h-21.9c-12.1,0-21.9-9.8-21.9-21.9v-21.9c0-12.1,9.8-21.9,21.9-21.9h614.4c12.1,0,21.9,9.8,21.9,21.9v21.9
					C2757.5-354.8,2747.6-345,2735.5-345z M2636.8-191.4c18.2,0,32.9-14.7,32.9-32.9s-14.7-32.9-32.9-32.9
					c-18.2,0-32.9,14.7-32.9,32.9C2603.9-206.1,2618.6-191.4,2636.8-191.4z M2581.9-330.9c1.7,29,25.8,51.7,54.9,51.7
					s53.1-22.7,54.9-51.7V-345h-109.7L2581.9-330.9L2581.9-330.9z M2428.3-191.4c18.2,0,32.9-14.7,32.9-32.9s-14.7-32.9-32.9-32.9
					c-18.2,0-32.9,14.7-32.9,32.9C2395.4-206.1,2410.2-191.4,2428.3-191.4z M2373.5-330.9c1.7,29,25.8,51.7,54.9,51.7
					c29.1,0,53.1-22.7,54.9-51.7V-345h-109.7L2373.5-330.9L2373.5-330.9z M2219.9-191.4c18.2,0,32.9-14.7,32.9-32.9
					s-14.7-32.9-32.9-32.9c-18.2,0-32.9,14.7-32.9,32.9C2187-206.1,2201.7-191.4,2219.9-191.4z M2165-330.9
					c0.9,29.4,25.4,52.5,54.9,51.7c29.4,0.8,53.9-22.3,54.9-51.7V-345H2165V-330.9z M2121.1-388.9v21.9h614.4l0-21.9H2121.1z"/>
			</g>
		</g>
		<g>
			<g id="L1_10_15_" transform="matrix(0.1171875 0 0 0.1171875 204 -29)">
				<path d="M6564.5-81.7h-11v263.3h11c18.2,0,32.9,14.7,32.9,32.9s-14.7,32.9-32.9,32.9h-592.5c-18.2,0-32.9-14.7-32.9-32.9
					s14.7-32.9,32.9-32.9h11V-81.7h-11c-18.2,0-32.9-14.7-32.9-32.9s14.7-32.9,32.9-32.9h592.5c18.2,0,32.9,14.7,32.9,32.9
					S6582.7-81.7,6564.5-81.7z M5972.1,203.6c-6.1,0-11,4.9-11,11c0,6.1,4.9,11,11,11h592.5c6.1,0,11-4.9,11-11s-4.9-11-11-11
					H5972.1z M6531.6,181.6V-81.7H6005v263.3H6531.6z M6564.5-125.6h-592.5c-6.1,0-11,4.9-11,11s4.9,11,11,11h592.5
					c6.1,0,11-4.9,11-11C6575.5-120.6,6570.6-125.6,6564.5-125.6z"/>
				<path d="M6125.7-4.1c6.1,0,11,4.9,11,11v53.7l32.9-14v-65.5l0-0.1c0-1.4,0.3-2.8,0.8-4.1c0.8-1.2,1.5-2.4,2.3-3.5
					c1-1,2.2-1.9,3.6-2.4l54.6-23.2c24-10.1,51-10.1,75,0l54.5,23.1c1.3,0.6,2.5,1.4,3.6,2.4c0.8,1.2,1.6,2.3,2.3,3.5
					c0.5,1.3,0.8,2.7,0.8,4.1l0,0.1v65.5l43.5,18.5c7,3.2,11.4,10.2,11.4,17.9c0,7.7-4.5,14.6-11.4,17.9l-135.4,57.5
					c-4.3,1.9-9.3,1.9-13.6,0l-135.4-57.5c-7-3.1-11.5-10.2-11.4-17.9V6.8C6114.7,0.8,6119.6-4.1,6125.7-4.1z M6345.1-11.7
					l-47.8-20.3c-18.5-7.8-39.4-7.8-58,0l-47.8,20.3v48.9l70-29.7c4.3-1.9,9.3-1.9,13.6,0l70,29.7L6345.1-11.7L6345.1-11.7z
					 M6268.3,137.4l128.2-54.5l-44.6-19l-0.1,0l-83.5-35.5l-83.5,35.5l-0.1,0l-44.6,19L6268.3,137.4z"/>
				<path d="M6575.5-345h-21.9v14.1c-0.3,27.8-16.2,53-41.2,65.2c17.5,14.9,23.8,39.1,15.9,60.7c-7.9,21.6-28.5,35.9-51.5,35.9
					s-43.5-14.3-51.5-35.9c-7.9-21.6-1.6-45.8,15.9-60.7c-25-12.2-40.9-37.4-41.2-65.2V-345h-54.9v14.1c-0.3,27.8-16.2,53-41.2,65.2
					c17.5,14.9,23.8,39.1,15.9,60.7c-7.9,21.6-28.5,35.9-51.5,35.9c-23,0-43.5-14.3-51.5-35.9c-7.9-21.6-1.6-45.8,15.9-60.7
					c-25-12.2-40.9-37.4-41.2-65.2V-345h-54.9v14.1c-0.3,27.8-16.2,53-41.2,65.2c17.5,14.9,23.8,39.1,15.9,60.7
					c-7.9,21.6-28.5,35.9-51.5,35.9s-43.5-14.3-51.5-35.9c-7.9-21.6-1.6-45.8,15.9-60.7c-25-12.2-40.9-37.4-41.2-65.2V-345h-21.9
					c-12.1,0-21.9-9.8-21.9-21.9v-21.9c0-12.1,9.8-21.9,21.9-21.9h614.4c12.1,0,21.9,9.8,21.9,21.9v21.9
					C6597.4-354.8,6587.6-345,6575.5-345z M6476.8-191.4c18.2,0,32.9-14.7,32.9-32.9s-14.7-32.9-32.9-32.9
					c-18.2,0-32.9,14.7-32.9,32.9C6443.9-206.1,6458.6-191.4,6476.8-191.4z M6421.9-330.9c1.7,29,25.8,51.7,54.9,51.7
					c29.1,0,53.1-22.7,54.9-51.7V-345h-109.7L6421.9-330.9L6421.9-330.9z M6268.3-191.4c18.2,0,32.9-14.7,32.9-32.9
					s-14.7-32.9-32.9-32.9c-18.2,0-32.9,14.7-32.9,32.9C6235.4-206.1,6250.1-191.4,6268.3-191.4z M6213.5-330.9
					c1.7,29,25.8,51.7,54.9,51.7s53.1-22.7,54.9-51.7V-345h-109.7L6213.5-330.9L6213.5-330.9z M6059.9-191.4
					c18.2,0,32.9-14.7,32.9-32.9s-14.7-32.9-32.9-32.9c-18.2,0-32.9,14.7-32.9,32.9C6026.9-206.1,6041.7-191.4,6059.9-191.4z
					 M6005-330.9c0.9,29.4,25.4,52.5,54.9,51.7c29.4,0.8,53.9-22.3,54.9-51.7V-345H6005V-330.9z M5961.1-388.9v21.9h614.4l0-21.9
					H5961.1z"/>
			</g>
		</g>
		<g>
			<g id="L1_10_14_" transform="matrix(0.1171875 0 0 0.1171875 204 -29)">
				<path d="M-1115.4-3921.7h-11v263.3h11c18.2,0,32.9,14.7,32.9,32.9c0,18.2-14.7,32.9-32.9,32.9h-592.5
					c-18.2,0-32.9-14.7-32.9-32.9s14.7-32.9,32.9-32.9h11v-263.3h-11c-18.2,0-32.9-14.7-32.9-32.9c0-18.2,14.7-32.9,32.9-32.9h592.5
					c18.2,0,32.9,14.7,32.9,32.9C-1082.5-3936.4-1097.2-3921.7-1115.4-3921.7z M-1707.9-3636.4c-6.1,0-11,4.9-11,11
					c0,6.1,4.9,11,11,11h592.5c6.1,0,11-4.9,11-11s-4.9-11-11-11H-1707.9z M-1148.3-3658.3v-263.3H-1675v263.3H-1148.3z
					 M-1115.4-3965.5h-592.5c-6.1,0-11,4.9-11,11s4.9,11,11,11h592.5c6.1,0,11-4.9,11-11
					C-1104.5-3960.6-1109.4-3965.5-1115.4-3965.5z"/>
				<path d="M-1554.3-3844.1c6.1,0,11,4.9,11,11v53.7l32.9-14v-65.5l0-0.1c0-1.4,0.3-2.8,0.8-4.1c0.8-1.2,1.5-2.4,2.3-3.5
					c1-1,2.2-1.9,3.6-2.4l54.6-23.2c24-10.1,51-10.1,75,0l54.5,23.1c1.3,0.6,2.5,1.4,3.6,2.4c0.8,1.2,1.6,2.3,2.3,3.5
					c0.5,1.3,0.8,2.7,0.8,4.1l0,0.1v65.5l43.5,18.5c7,3.2,11.4,10.2,11.4,17.9c0,7.7-4.4,14.6-11.4,17.9l-135.4,57.5
					c-4.3,1.9-9.3,1.9-13.6,0l-135.4-57.5c-7-3.1-11.5-10.2-11.4-17.9v-76.1C-1565.2-3839.2-1560.3-3844.1-1554.3-3844.1z
					 M-1334.9-3851.6l-47.8-20.3c-18.5-7.8-39.4-7.8-58,0l-47.8,20.3v48.9l70-29.7c4.3-1.9,9.3-1.9,13.6,0l70,29.7L-1334.9-3851.6
					L-1334.9-3851.6z M-1411.7-3702.6l128.2-54.5l-44.6-19l-0.1,0l-83.5-35.5l-83.5,35.5l-0.1,0l-44.6,19L-1411.7-3702.6z"/>
				<path d="M-1104.5-4185h-21.9v14.1c-0.3,27.8-16.2,53-41.2,65.2c17.5,14.9,23.8,39.1,15.9,60.7c-7.9,21.6-28.5,35.9-51.5,35.9
					s-43.5-14.3-51.5-35.9c-7.9-21.6-1.6-45.8,15.9-60.7c-25-12.2-40.9-37.4-41.2-65.2v-14.1h-54.9v14.1
					c-0.3,27.8-16.2,53-41.2,65.2c17.5,14.9,23.8,39.1,15.9,60.7c-7.9,21.6-28.5,35.9-51.5,35.9c-23,0-43.5-14.3-51.5-35.9
					c-7.9-21.6-1.6-45.8,15.9-60.7c-25-12.2-40.9-37.4-41.2-65.2v-14.1h-54.9v14.1c-0.3,27.8-16.2,53-41.2,65.2
					c17.5,14.9,23.8,39.1,15.9,60.7c-7.9,21.6-28.5,35.9-51.5,35.9c-23,0-43.5-14.3-51.5-35.9c-7.9-21.6-1.6-45.8,15.9-60.7
					c-25-12.2-40.9-37.4-41.2-65.2v-14.1h-21.9c-12.1,0-21.9-9.8-21.9-21.9v-21.9c0-12.1,9.8-21.9,21.9-21.9h614.4
					c12.1,0,21.9,9.8,21.9,21.9v21.9C-1082.5-4194.8-1092.3-4185-1104.5-4185z M-1203.2-4031.4c18.2,0,32.9-14.7,32.9-32.9
					c0-18.2-14.7-32.9-32.9-32.9c-18.2,0-32.9,14.7-32.9,32.9C-1236.1-4046.1-1221.4-4031.4-1203.2-4031.4z M-1258.1-4170.9
					c1.7,29,25.8,51.7,54.9,51.7s53.1-22.7,54.9-51.7v-14.1h-109.7L-1258.1-4170.9L-1258.1-4170.9z M-1411.7-4031.4
					c18.2,0,32.9-14.7,32.9-32.9c0-18.2-14.7-32.9-32.9-32.9c-18.2,0-32.9,14.7-32.9,32.9
					C-1444.6-4046.1-1429.8-4031.4-1411.7-4031.4z M-1466.5-4170.9c1.7,29,25.8,51.7,54.9,51.7s53.1-22.7,54.9-51.7v-14.1h-109.7
					L-1466.5-4170.9L-1466.5-4170.9z M-1620.1-4031.4c18.2,0,32.9-14.7,32.9-32.9c0-18.2-14.7-32.9-32.9-32.9
					c-18.2,0-32.9,14.7-32.9,32.9C-1653-4046.1-1638.3-4031.4-1620.1-4031.4z M-1675-4170.9c0.9,29.4,25.4,52.5,54.9,51.7
					c29.4,0.8,53.9-22.3,54.9-51.7v-14.1H-1675V-4170.9z M-1718.8-4228.9v21.9h614.4l0-21.9H-1718.8z"/>
			</g>
		</g>
		<g>
			<g id="L1_10_13_" transform="matrix(0.1171875 0 0 0.1171875 204 -29)">
				<path d="M2724.6-3921.7h-11v263.3h11c18.2,0,32.9,14.7,32.9,32.9c0,18.2-14.7,32.9-32.9,32.9h-592.5
					c-18.2,0-32.9-14.7-32.9-32.9s14.7-32.9,32.9-32.9h11v-263.3h-11c-18.2,0-32.9-14.7-32.9-32.9c0-18.2,14.7-32.9,32.9-32.9h592.5
					c18.2,0,32.9,14.7,32.9,32.9C2757.5-3936.4,2742.7-3921.7,2724.6-3921.7z M2132.1-3636.4c-6.1,0-11,4.9-11,11
					c0,6.1,4.9,11,11,11h592.5c6.1,0,11-4.9,11-11s-4.9-11-11-11H2132.1z M2691.6-3658.3v-263.3H2165v263.3H2691.6z M2724.6-3965.5
					h-592.5c-6.1,0-11,4.9-11,11s4.9,11,11,11h592.5c6.1,0,11-4.9,11-11C2735.5-3960.6,2730.6-3965.5,2724.6-3965.5z"/>
				<path d="M2285.7-3844.1c6.1,0,11,4.9,11,11v53.7l32.9-14v-65.5l0-0.1c0-1.4,0.3-2.8,0.8-4.1c0.8-1.2,1.5-2.4,2.3-3.5
					c1-1,2.2-1.9,3.6-2.4l54.6-23.2c24-10.1,51-10.1,75,0l54.5,23.1c1.3,0.6,2.5,1.4,3.6,2.4c0.8,1.2,1.6,2.3,2.3,3.5
					c0.5,1.3,0.8,2.7,0.8,4.1l0,0.1v65.5l43.5,18.5c7,3.2,11.4,10.2,11.4,17.9c0,7.7-4.4,14.6-11.4,17.9l-135.4,57.5
					c-4.3,1.9-9.3,1.9-13.6,0l-135.4-57.5c-7-3.1-11.5-10.2-11.4-17.9v-76.1C2274.7-3839.2,2279.6-3844.1,2285.7-3844.1z
					 M2505.1-3851.6l-47.8-20.3c-18.5-7.8-39.4-7.8-58,0l-47.8,20.3v48.9l70-29.7c4.3-1.9,9.3-1.9,13.6,0l70,29.7L2505.1-3851.6
					L2505.1-3851.6z M2428.3-3702.6l128.2-54.5l-44.6-19l-0.1,0l-83.5-35.5l-83.5,35.5l-0.1,0l-44.6,19L2428.3-3702.6z"/>
				<path d="M2735.5-4185h-21.9v14.1c-0.3,27.8-16.2,53-41.2,65.2c17.5,14.9,23.8,39.1,15.9,60.7c-7.9,21.6-28.5,35.9-51.5,35.9
					c-23,0-43.5-14.3-51.5-35.9c-7.9-21.6-1.6-45.8,15.9-60.7c-25-12.2-40.9-37.4-41.2-65.2v-14.1h-54.9v14.1
					c-0.3,27.8-16.2,53-41.2,65.2c17.5,14.9,23.8,39.1,15.9,60.7c-7.9,21.6-28.5,35.9-51.5,35.9s-43.5-14.3-51.5-35.9
					c-7.9-21.6-1.6-45.8,15.9-60.7c-25-12.2-40.9-37.4-41.2-65.2v-14.1h-54.9v14.1c-0.3,27.8-16.2,53-41.2,65.2
					c17.5,14.9,23.8,39.1,15.9,60.7c-7.9,21.6-28.5,35.9-51.5,35.9c-23,0-43.5-14.3-51.5-35.9c-7.9-21.6-1.6-45.8,15.9-60.7
					c-25-12.2-40.9-37.4-41.2-65.2v-14.1h-21.9c-12.1,0-21.9-9.8-21.9-21.9v-21.9c0-12.1,9.8-21.9,21.9-21.9h614.4
					c12.1,0,21.9,9.8,21.9,21.9v21.9C2757.5-4194.8,2747.6-4185,2735.5-4185z M2636.8-4031.4c18.2,0,32.9-14.7,32.9-32.9
					c0-18.2-14.7-32.9-32.9-32.9c-18.2,0-32.9,14.7-32.9,32.9C2603.9-4046.1,2618.6-4031.4,2636.8-4031.4z M2581.9-4170.9
					c1.7,29,25.8,51.7,54.9,51.7s53.1-22.7,54.9-51.7v-14.1h-109.7L2581.9-4170.9L2581.9-4170.9z M2428.3-4031.4
					c18.2,0,32.9-14.7,32.9-32.9c0-18.2-14.7-32.9-32.9-32.9c-18.2,0-32.9,14.7-32.9,32.9
					C2395.4-4046.1,2410.2-4031.4,2428.3-4031.4z M2373.5-4170.9c1.7,29,25.8,51.7,54.9,51.7c29.1,0,53.1-22.7,54.9-51.7v-14.1
					h-109.7L2373.5-4170.9L2373.5-4170.9z M2219.9-4031.4c18.2,0,32.9-14.7,32.9-32.9c0-18.2-14.7-32.9-32.9-32.9
					c-18.2,0-32.9,14.7-32.9,32.9C2187-4046.1,2201.7-4031.4,2219.9-4031.4z M2165-4170.9c0.9,29.4,25.4,52.5,54.9,51.7
					c29.4,0.8,53.9-22.3,54.9-51.7v-14.1H2165V-4170.9z M2121.1-4228.9v21.9h614.4l0-21.9H2121.1z"/>
			</g>
		</g>
		<g>
			<g id="L1_10_12_" transform="matrix(0.1171875 0 0 0.1171875 204 -29)">
				<path d="M6564.5-3921.7h-11v263.3h11c18.2,0,32.9,14.7,32.9,32.9c0,18.2-14.7,32.9-32.9,32.9h-592.5
					c-18.2,0-32.9-14.7-32.9-32.9s14.7-32.9,32.9-32.9h11v-263.3h-11c-18.2,0-32.9-14.7-32.9-32.9c0-18.2,14.7-32.9,32.9-32.9h592.5
					c18.2,0,32.9,14.7,32.9,32.9C6597.5-3936.4,6582.7-3921.7,6564.5-3921.7z M5972.1-3636.4c-6.1,0-11,4.9-11,11
					c0,6.1,4.9,11,11,11h592.5c6.1,0,11-4.9,11-11s-4.9-11-11-11H5972.1z M6531.6-3658.3v-263.3H6005v263.3H6531.6z M6564.5-3965.5
					h-592.5c-6.1,0-11,4.9-11,11s4.9,11,11,11h592.5c6.1,0,11-4.9,11-11C6575.5-3960.6,6570.6-3965.5,6564.5-3965.5z"/>
				<path d="M6125.7-3844.1c6.1,0,11,4.9,11,11v53.7l32.9-14v-65.5l0-0.1c0-1.4,0.3-2.8,0.8-4.1c0.8-1.2,1.5-2.4,2.3-3.5
					c1-1,2.2-1.9,3.6-2.4l54.6-23.2c24-10.1,51-10.1,75,0l54.5,23.1c1.3,0.6,2.5,1.4,3.6,2.4c0.8,1.2,1.6,2.3,2.3,3.5
					c0.5,1.3,0.8,2.7,0.8,4.1l0,0.1v65.5l43.5,18.5c7,3.2,11.4,10.2,11.4,17.9c0,7.7-4.5,14.6-11.4,17.9l-135.4,57.5
					c-4.3,1.9-9.3,1.9-13.6,0l-135.4-57.5c-7-3.1-11.5-10.2-11.4-17.9v-76.1C6114.7-3839.2,6119.6-3844.1,6125.7-3844.1z
					 M6345.1-3851.6l-47.8-20.3c-18.5-7.8-39.4-7.8-58,0l-47.8,20.3v48.9l70-29.7c4.3-1.9,9.3-1.9,13.6,0l70,29.7L6345.1-3851.6
					L6345.1-3851.6z M6268.3-3702.6l128.2-54.5l-44.6-19l-0.1,0l-83.5-35.5l-83.5,35.5l-0.1,0l-44.6,19L6268.3-3702.6z"/>
				<path d="M6575.5-4185h-21.9v14.1c-0.3,27.8-16.2,53-41.2,65.2c17.5,14.9,23.8,39.1,15.9,60.7c-7.9,21.6-28.5,35.9-51.5,35.9
					s-43.5-14.3-51.5-35.9c-7.9-21.6-1.6-45.8,15.9-60.7c-25-12.2-40.9-37.4-41.2-65.2v-14.1h-54.9v14.1
					c-0.3,27.8-16.2,53-41.2,65.2c17.5,14.9,23.8,39.1,15.9,60.7c-7.9,21.6-28.5,35.9-51.5,35.9c-23,0-43.5-14.3-51.5-35.9
					c-7.9-21.6-1.6-45.8,15.9-60.7c-25-12.2-40.9-37.4-41.2-65.2v-14.1h-54.9v14.1c-0.3,27.8-16.2,53-41.2,65.2
					c17.5,14.9,23.8,39.1,15.9,60.7c-7.9,21.6-28.5,35.9-51.5,35.9s-43.5-14.3-51.5-35.9c-7.9-21.6-1.6-45.8,15.9-60.7
					c-25-12.2-40.9-37.4-41.2-65.2v-14.1h-21.9c-12.1,0-21.9-9.8-21.9-21.9v-21.9c0-12.1,9.8-21.9,21.9-21.9h614.4
					c12.1,0,21.9,9.8,21.9,21.9v21.9C6597.4-4194.8,6587.6-4185,6575.5-4185z M6476.8-4031.4c18.2,0,32.9-14.7,32.9-32.9
					c0-18.2-14.7-32.9-32.9-32.9c-18.2,0-32.9,14.7-32.9,32.9C6443.9-4046.1,6458.6-4031.4,6476.8-4031.4z M6421.9-4170.9
					c1.7,29,25.8,51.7,54.9,51.7c29.1,0,53.1-22.7,54.9-51.7v-14.1h-109.7L6421.9-4170.9L6421.9-4170.9z M6268.3-4031.4
					c18.2,0,32.9-14.7,32.9-32.9c0-18.2-14.7-32.9-32.9-32.9c-18.2,0-32.9,14.7-32.9,32.9
					C6235.4-4046.1,6250.1-4031.4,6268.3-4031.4z M6213.5-4170.9c1.7,29,25.8,51.7,54.9,51.7s53.1-22.7,54.9-51.7v-14.1h-109.7
					L6213.5-4170.9L6213.5-4170.9z M6059.9-4031.4c18.2,0,32.9-14.7,32.9-32.9c0-18.2-14.7-32.9-32.9-32.9
					c-18.2,0-32.9,14.7-32.9,32.9C6026.9-4046.1,6041.7-4031.4,6059.9-4031.4z M6005-4170.9c0.9,29.4,25.4,52.5,54.9,51.7
					c29.4,0.8,53.9-22.3,54.9-51.7v-14.1H6005V-4170.9z M5961.1-4228.9v21.9h614.4l0-21.9H5961.1z"/>
			</g>
		</g>
		<g>
			<g id="L1_10_11_" transform="matrix(0.1171875 0 0 0.1171875 204 -29)">
				<path d="M-1115.4-7761.6h-11v263.3h11c18.2,0,32.9,14.7,32.9,32.9s-14.7,32.9-32.9,32.9h-592.5c-18.2,0-32.9-14.7-32.9-32.9
					s14.7-32.9,32.9-32.9h11v-263.3h-11c-18.2,0-32.9-14.7-32.9-32.9s14.7-32.9,32.9-32.9h592.5c18.2,0,32.9,14.7,32.9,32.9
					S-1097.2-7761.6-1115.4-7761.6z M-1707.9-7476.4c-6.1,0-11,4.9-11,11c0,6.1,4.9,11,11,11h592.5c6.1,0,11-4.9,11-11
					s-4.9-11-11-11H-1707.9z M-1148.3-7498.3v-263.3H-1675v263.3H-1148.3z M-1115.4-7805.5h-592.5c-6.1,0-11,4.9-11,11s4.9,11,11,11
					h592.5c6.1,0,11-4.9,11-11C-1104.5-7800.6-1109.4-7805.5-1115.4-7805.5z"/>
				<path d="M-1554.3-7684.1c6.1,0,11,4.9,11,11v53.7l32.9-14v-65.5l0-0.1c0-1.4,0.3-2.8,0.8-4.1c0.8-1.2,1.5-2.4,2.3-3.5
					c1-1,2.2-1.9,3.6-2.4l54.6-23.2c24-10.1,51-10.1,75,0l54.5,23.1c1.3,0.6,2.5,1.4,3.6,2.4c0.8,1.2,1.6,2.3,2.3,3.5
					c0.5,1.3,0.8,2.7,0.8,4.1l0,0.1v65.5l43.5,18.5c7,3.2,11.4,10.2,11.4,17.9c0,7.7-4.4,14.6-11.4,17.9l-135.4,57.5
					c-4.3,1.9-9.3,1.9-13.6,0l-135.4-57.5c-7-3.1-11.5-10.2-11.4-17.9v-76.1C-1565.2-7679.2-1560.3-7684.1-1554.3-7684.1z
					 M-1334.9-7691.6l-47.8-20.3c-18.5-7.8-39.4-7.8-58,0l-47.8,20.3v48.9l70-29.7c4.3-1.9,9.3-1.9,13.6,0l70,29.7L-1334.9-7691.6
					L-1334.9-7691.6z M-1411.7-7542.6l128.2-54.5l-44.6-19l-0.1,0l-83.5-35.5l-83.5,35.5l-0.1,0l-44.6,19L-1411.7-7542.6z"/>
				<path d="M-1104.5-8025h-21.9v14.1c-0.3,27.8-16.2,53-41.2,65.2c17.5,14.9,23.8,39.1,15.9,60.7c-7.9,21.6-28.5,35.9-51.5,35.9
					s-43.5-14.3-51.5-35.9c-7.9-21.6-1.6-45.8,15.9-60.7c-25-12.2-40.9-37.4-41.2-65.2v-14.1h-54.9v14.1
					c-0.3,27.8-16.2,53-41.2,65.2c17.5,14.9,23.8,39.1,15.9,60.7c-7.9,21.6-28.5,35.9-51.5,35.9c-23,0-43.5-14.3-51.5-35.9
					c-7.9-21.6-1.6-45.8,15.9-60.7c-25-12.2-40.9-37.4-41.2-65.2v-14.1h-54.9v14.1c-0.3,27.8-16.2,53-41.2,65.2
					c17.5,14.9,23.8,39.1,15.9,60.7c-7.9,21.6-28.5,35.9-51.5,35.9c-23,0-43.5-14.3-51.5-35.9c-7.9-21.6-1.6-45.8,15.9-60.7
					c-25-12.2-40.9-37.4-41.2-65.2v-14.1h-21.9c-12.1,0-21.9-9.8-21.9-21.9v-21.9c0-12.1,9.8-21.9,21.9-21.9h614.4
					c12.1,0,21.9,9.8,21.9,21.9v21.9C-1082.5-8034.8-1092.3-8025-1104.5-8025z M-1203.2-7871.4c18.2,0,32.9-14.7,32.9-32.9
					s-14.7-32.9-32.9-32.9c-18.2,0-32.9,14.7-32.9,32.9C-1236.1-7886.1-1221.4-7871.4-1203.2-7871.4z M-1258.1-8010.9
					c1.7,29,25.8,51.7,54.9,51.7s53.1-22.7,54.9-51.7v-14.1h-109.7L-1258.1-8010.9L-1258.1-8010.9z M-1411.7-7871.4
					c18.2,0,32.9-14.7,32.9-32.9s-14.7-32.9-32.9-32.9c-18.2,0-32.9,14.7-32.9,32.9C-1444.6-7886.1-1429.8-7871.4-1411.7-7871.4z
					 M-1466.5-8010.9c1.7,29,25.8,51.7,54.9,51.7s53.1-22.7,54.9-51.7v-14.1h-109.7L-1466.5-8010.9L-1466.5-8010.9z M-1620.1-7871.4
					c18.2,0,32.9-14.7,32.9-32.9s-14.7-32.9-32.9-32.9c-18.2,0-32.9,14.7-32.9,32.9C-1653-7886.1-1638.3-7871.4-1620.1-7871.4z
					 M-1675-8010.9c0.9,29.4,25.4,52.5,54.9,51.7c29.4,0.8,53.9-22.3,54.9-51.7v-14.1H-1675V-8010.9z M-1718.8-8068.8v21.9h614.4
					l0-21.9H-1718.8z"/>
			</g>
		</g>
		<g>
			<g id="L1_10_10_" transform="matrix(0.1171875 0 0 0.1171875 204 -29)">
				<path d="M2724.6-7761.6h-11v263.3h11c18.2,0,32.9,14.7,32.9,32.9s-14.7,32.9-32.9,32.9h-592.5c-18.2,0-32.9-14.7-32.9-32.9
					s14.7-32.9,32.9-32.9h11v-263.3h-11c-18.2,0-32.9-14.7-32.9-32.9s14.7-32.9,32.9-32.9h592.5c18.2,0,32.9,14.7,32.9,32.9
					S2742.7-7761.6,2724.6-7761.6z M2132.1-7476.4c-6.1,0-11,4.9-11,11c0,6.1,4.9,11,11,11h592.5c6.1,0,11-4.9,11-11s-4.9-11-11-11
					H2132.1z M2691.6-7498.3v-263.3H2165v263.3H2691.6z M2724.6-7805.5h-592.5c-6.1,0-11,4.9-11,11s4.9,11,11,11h592.5
					c6.1,0,11-4.9,11-11C2735.5-7800.6,2730.6-7805.5,2724.6-7805.5z"/>
				<path d="M2285.7-7684.1c6.1,0,11,4.9,11,11v53.7l32.9-14v-65.5l0-0.1c0-1.4,0.3-2.8,0.8-4.1c0.8-1.2,1.5-2.4,2.3-3.5
					c1-1,2.2-1.9,3.6-2.4l54.6-23.2c24-10.1,51-10.1,75,0l54.5,23.1c1.3,0.6,2.5,1.4,3.6,2.4c0.8,1.2,1.6,2.3,2.3,3.5
					c0.5,1.3,0.8,2.7,0.8,4.1l0,0.1v65.5l43.5,18.5c7,3.2,11.4,10.2,11.4,17.9c0,7.7-4.4,14.6-11.4,17.9l-135.4,57.5
					c-4.3,1.9-9.3,1.9-13.6,0l-135.4-57.5c-7-3.1-11.5-10.2-11.4-17.9v-76.1C2274.7-7679.2,2279.6-7684.1,2285.7-7684.1z
					 M2505.1-7691.6l-47.8-20.3c-18.5-7.8-39.4-7.8-58,0l-47.8,20.3v48.9l70-29.7c4.3-1.9,9.3-1.9,13.6,0l70,29.7L2505.1-7691.6
					L2505.1-7691.6z M2428.3-7542.6l128.2-54.5l-44.6-19l-0.1,0l-83.5-35.5l-83.5,35.5l-0.1,0l-44.6,19L2428.3-7542.6z"/>
				<path d="M2735.5-8025h-21.9v14.1c-0.3,27.8-16.2,53-41.2,65.2c17.5,14.9,23.8,39.1,15.9,60.7c-7.9,21.6-28.5,35.9-51.5,35.9
					c-23,0-43.5-14.3-51.5-35.9c-7.9-21.6-1.6-45.8,15.9-60.7c-25-12.2-40.9-37.4-41.2-65.2v-14.1h-54.9v14.1
					c-0.3,27.8-16.2,53-41.2,65.2c17.5,14.9,23.8,39.1,15.9,60.7c-7.9,21.6-28.5,35.9-51.5,35.9s-43.5-14.3-51.5-35.9
					c-7.9-21.6-1.6-45.8,15.9-60.7c-25-12.2-40.9-37.4-41.2-65.2v-14.1h-54.9v14.1c-0.3,27.8-16.2,53-41.2,65.2
					c17.5,14.9,23.8,39.1,15.9,60.7c-7.9,21.6-28.5,35.9-51.5,35.9c-23,0-43.5-14.3-51.5-35.9c-7.9-21.6-1.6-45.8,15.9-60.7
					c-25-12.2-40.9-37.4-41.2-65.2v-14.1h-21.9c-12.1,0-21.9-9.8-21.9-21.9v-21.9c0-12.1,9.8-21.9,21.9-21.9h614.4
					c12.1,0,21.9,9.8,21.9,21.9v21.9C2757.5-8034.8,2747.6-8025,2735.5-8025z M2636.8-7871.4c18.2,0,32.9-14.7,32.9-32.9
					s-14.7-32.9-32.9-32.9c-18.2,0-32.9,14.7-32.9,32.9C2603.9-7886.1,2618.6-7871.4,2636.8-7871.4z M2581.9-8010.9
					c1.7,29,25.8,51.7,54.9,51.7s53.1-22.7,54.9-51.7v-14.1h-109.7L2581.9-8010.9L2581.9-8010.9z M2428.3-7871.4
					c18.2,0,32.9-14.7,32.9-32.9s-14.7-32.9-32.9-32.9c-18.2,0-32.9,14.7-32.9,32.9C2395.4-7886.1,2410.2-7871.4,2428.3-7871.4z
					 M2373.5-8010.9c1.7,29,25.8,51.7,54.9,51.7c29.1,0,53.1-22.7,54.9-51.7v-14.1h-109.7L2373.5-8010.9L2373.5-8010.9z
					 M2219.9-7871.4c18.2,0,32.9-14.7,32.9-32.9s-14.7-32.9-32.9-32.9c-18.2,0-32.9,14.7-32.9,32.9
					C2187-7886.1,2201.7-7871.4,2219.9-7871.4z M2165-8010.9c0.9,29.4,25.4,52.5,54.9,51.7c29.4,0.8,53.9-22.3,54.9-51.7v-14.1H2165
					V-8010.9z M2121.1-8068.8v21.9h614.4l0-21.9H2121.1z"/>
			</g>
		</g>
		<g>
			<g id="L1_10_9_" transform="matrix(0.1171875 0 0 0.1171875 204 -29)">
				<path d="M6564.5-7761.6h-11v263.3h11c18.2,0,32.9,14.7,32.9,32.9s-14.7,32.9-32.9,32.9h-592.5c-18.2,0-32.9-14.7-32.9-32.9
					s14.7-32.9,32.9-32.9h11v-263.3h-11c-18.2,0-32.9-14.7-32.9-32.9s14.7-32.9,32.9-32.9h592.5c18.2,0,32.9,14.7,32.9,32.9
					S6582.7-7761.6,6564.5-7761.6z M5972.1-7476.4c-6.1,0-11,4.9-11,11c0,6.1,4.9,11,11,11h592.5c6.1,0,11-4.9,11-11s-4.9-11-11-11
					H5972.1z M6531.6-7498.3v-263.3H6005v263.3H6531.6z M6564.5-7805.5h-592.5c-6.1,0-11,4.9-11,11s4.9,11,11,11h592.5
					c6.1,0,11-4.9,11-11C6575.5-7800.6,6570.6-7805.5,6564.5-7805.5z"/>
				<path d="M6125.7-7684.1c6.1,0,11,4.9,11,11v53.7l32.9-14v-65.5l0-0.1c0-1.4,0.3-2.8,0.8-4.1c0.8-1.2,1.5-2.4,2.3-3.5
					c1-1,2.2-1.9,3.6-2.4l54.6-23.2c24-10.1,51-10.1,75,0l54.5,23.1c1.3,0.6,2.5,1.4,3.6,2.4c0.8,1.2,1.6,2.3,2.3,3.5
					c0.5,1.3,0.8,2.7,0.8,4.1l0,0.1v65.5l43.5,18.5c7,3.2,11.4,10.2,11.4,17.9c0,7.7-4.5,14.6-11.4,17.9l-135.4,57.5
					c-4.3,1.9-9.3,1.9-13.6,0l-135.4-57.5c-7-3.1-11.5-10.2-11.4-17.9v-76.1C6114.7-7679.2,6119.6-7684.1,6125.7-7684.1z
					 M6345.1-7691.6l-47.8-20.3c-18.5-7.8-39.4-7.8-58,0l-47.8,20.3v48.9l70-29.7c4.3-1.9,9.3-1.9,13.6,0l70,29.7L6345.1-7691.6
					L6345.1-7691.6z M6268.3-7542.6l128.2-54.5l-44.6-19l-0.1,0l-83.5-35.5l-83.5,35.5l-0.1,0l-44.6,19L6268.3-7542.6z"/>
				<path d="M6575.5-8025h-21.9v14.1c-0.3,27.8-16.2,53-41.2,65.2c17.5,14.9,23.8,39.1,15.9,60.7c-7.9,21.6-28.5,35.9-51.5,35.9
					s-43.5-14.3-51.5-35.9c-7.9-21.6-1.6-45.8,15.9-60.7c-25-12.2-40.9-37.4-41.2-65.2v-14.1h-54.9v14.1
					c-0.3,27.8-16.2,53-41.2,65.2c17.5,14.9,23.8,39.1,15.9,60.7c-7.9,21.6-28.5,35.9-51.5,35.9c-23,0-43.5-14.3-51.5-35.9
					c-7.9-21.6-1.6-45.8,15.9-60.7c-25-12.2-40.9-37.4-41.2-65.2v-14.1h-54.9v14.1c-0.3,27.8-16.2,53-41.2,65.2
					c17.5,14.9,23.8,39.1,15.9,60.7c-7.9,21.6-28.5,35.9-51.5,35.9s-43.5-14.3-51.5-35.9c-7.9-21.6-1.6-45.8,15.9-60.7
					c-25-12.2-40.9-37.4-41.2-65.2v-14.1h-21.9c-12.1,0-21.9-9.8-21.9-21.9v-21.9c0-12.1,9.8-21.9,21.9-21.9h614.4
					c12.1,0,21.9,9.8,21.9,21.9v21.9C6597.4-8034.8,6587.6-8025,6575.5-8025z M6476.8-7871.4c18.2,0,32.9-14.7,32.9-32.9
					s-14.7-32.9-32.9-32.9c-18.2,0-32.9,14.7-32.9,32.9C6443.9-7886.1,6458.6-7871.4,6476.8-7871.4z M6421.9-8010.9
					c1.7,29,25.8,51.7,54.9,51.7c29.1,0,53.1-22.7,54.9-51.7v-14.1h-109.7L6421.9-8010.9L6421.9-8010.9z M6268.3-7871.4
					c18.2,0,32.9-14.7,32.9-32.9s-14.7-32.9-32.9-32.9c-18.2,0-32.9,14.7-32.9,32.9C6235.4-7886.1,6250.1-7871.4,6268.3-7871.4z
					 M6213.5-8010.9c1.7,29,25.8,51.7,54.9,51.7s53.1-22.7,54.9-51.7v-14.1h-109.7L6213.5-8010.9L6213.5-8010.9z M6059.9-7871.4
					c18.2,0,32.9-14.7,32.9-32.9s-14.7-32.9-32.9-32.9c-18.2,0-32.9,14.7-32.9,32.9C6026.9-7886.1,6041.7-7871.4,6059.9-7871.4z
					 M6005-8010.9c0.9,29.4,25.4,52.5,54.9,51.7c29.4,0.8,53.9-22.3,54.9-51.7v-14.1H6005V-8010.9z M5961.1-8068.8v21.9h614.4
					l0-21.9H5961.1z"/>
			</g>
		</g>
	</g>
</pattern>
<pattern  y="1080" width="450" height="450" patternUnits="userSpaceOnUse" id="pattern_L1_6" viewBox="320.1 -632.5 450 450" style="overflow:visible;">
	<g>
		<rect x="320.1" y="-632.5" class="st0" width="450" height="450"/>
		<g>
			<g id="L1_6_17_" transform="matrix(0.20202088356018066 0 0 0.20202088356018066 101 200.99999898890917)">
				<path d="M-441.5-994.9C-441.5-994.9-441.6-994.9-441.5-994.9c-3.6,0-7-1.4-9.6-4c-2.6-2.6-4-6-4-9.7v-204.9
					c0-7.5,6.1-13.6,13.7-13.7c31.8-0.1,85.1-6.7,121.9-45.2v214.4c0,2.5-0.7,4.9-1.9,6.9C-351.7-1002.4-409.7-995-441.5-994.9z"/>
				<path d="M-162.9-1213.5v204.9c0,3.7-1.4,7.1-4,9.7c-2.6,2.6-6,4-9.6,4c0,0,0,0,0,0c-31.9-0.1-89.9-7.5-120-56
					c-1.2-2-1.9-4.4-1.9-6.9v-214.4c36.8,38.5,90,45.1,121.9,45.2C-169-1227.1-162.9-1221-162.9-1213.5z"/>
				<path d="M-131.8-1042.2h-9.9v-171.3c0-19.2-15.6-34.8-34.8-34.9c-27-0.1-71.5-5.3-103-35.2c54.5,13.3,111.9,4.7,144.7-2.8
					c4.1-0.9,8.3,0,11.6,2.6c3.3,2.6,5.1,6.5,5.1,10.7v217.2C-118.1-1048.3-124.2-1042.2-131.8-1042.2z"/>
				<path d="M-476.4-1213.5v171.3h-9.9c-7.5,0-13.7-6.1-13.7-13.7V-1273c0-4.2,1.9-8.1,5.1-10.7c3.3-2.6,7.5-3.6,11.6-2.6
					c32.7,7.5,90.2,16.1,144.7,2.8c-31.5,29.8-76,35.1-103,35.2C-460.7-1248.3-476.4-1232.7-476.4-1213.5z"/>
			</g>
		</g>
		<g>
			<g id="L1_6_16_" transform="matrix(0.20202088356018066 0 0 0.20202088356018066 101 200.99999898890917)">
				<path d="M1786-994.9C1785.9-994.9,1785.9-994.9,1786-994.9c-3.6,0-7-1.4-9.6-4c-2.6-2.6-4-6-4-9.7v-204.9
					c0-7.5,6.1-13.6,13.7-13.7c31.8-0.1,85.1-6.7,121.9-45.2v214.4c0,2.5-0.7,4.9-1.9,6.9C1875.8-1002.4,1817.8-995,1786-994.9z"/>
				<path d="M2064.6-1213.5v204.9c0,3.7-1.4,7.1-4,9.7c-2.6,2.6-6,4-9.6,4c0,0,0,0,0,0c-31.9-0.1-89.9-7.5-120-56
					c-1.2-2-1.9-4.4-1.9-6.9v-214.4c36.8,38.5,90,45.1,121.9,45.2C2058.5-1227.1,2064.6-1221,2064.6-1213.5z"/>
				<path d="M2095.7-1042.2h-9.9v-171.3c0-19.2-15.6-34.8-34.8-34.9c-27-0.1-71.5-5.3-103-35.2c54.5,13.3,111.9,4.7,144.7-2.8
					c4.1-0.9,8.3,0,11.6,2.6c3.3,2.6,5.1,6.5,5.1,10.7v217.2C2109.4-1048.3,2103.3-1042.2,2095.7-1042.2z"/>
				<path d="M1751.1-1213.5v171.3h-9.9c-7.5,0-13.7-6.1-13.7-13.7V-1273c0-4.2,1.9-8.1,5.1-10.7c3.3-2.6,7.5-3.6,11.6-2.6
					c32.7,7.5,90.2,16.1,144.7,2.8c-31.5,29.8-76,35.1-103,35.2C1766.7-1248.3,1751.1-1232.7,1751.1-1213.5z"/>
			</g>
		</g>
		<g>
			<g id="L1_6_15_" transform="matrix(0.20202088356018066 0 0 0.20202088356018066 101 200.99999898890917)">
				<path d="M4013.4-994.9C4013.4-994.9,4013.4-994.9,4013.4-994.9c-3.6,0-7-1.4-9.6-4c-2.6-2.6-4-6-4-9.7v-204.9
					c0-7.5,6.1-13.6,13.7-13.7c31.8-0.1,85.1-6.7,121.9-45.2v214.4c0,2.5-0.7,4.9-1.9,6.9C4103.3-1002.4,4045.3-995,4013.4-994.9z"
					/>
				<path d="M4292.1-1213.5v204.9c0,3.7-1.4,7.1-4,9.7c-2.6,2.6-6,4-9.6,4c0,0,0,0,0,0c-31.9-0.1-89.9-7.5-120-56
					c-1.2-2-1.9-4.4-1.9-6.9v-214.4c36.8,38.5,90,45.1,121.9,45.2C4286-1227.1,4292.1-1221,4292.1-1213.5z"/>
				<path d="M4323.2-1042.2h-9.9v-171.3c0-19.2-15.6-34.8-34.8-34.9c-27-0.1-71.5-5.3-103-35.2c54.5,13.3,111.9,4.7,144.7-2.8
					c4.1-0.9,8.3,0,11.6,2.6c3.3,2.6,5.1,6.5,5.1,10.7v217.2C4336.9-1048.3,4330.8-1042.2,4323.2-1042.2z"/>
				<path d="M3978.6-1213.5v171.3h-9.9c-7.5,0-13.7-6.1-13.7-13.7V-1273c0-4.2,1.9-8.1,5.1-10.7c3.3-2.6,7.5-3.6,11.6-2.6
					c32.7,7.5,90.2,16.1,144.7,2.8c-31.5,29.8-76,35.1-103,35.2C3994.2-1248.3,3978.6-1232.7,3978.6-1213.5z"/>
			</g>
		</g>
		<g>
			<g id="L1_6_14_" transform="matrix(0.20202088356018066 0 0 0.20202088356018066 101 200.99999898890917)">
				<path d="M-441.5-3222.4C-441.5-3222.4-441.6-3222.4-441.5-3222.4c-3.6,0-7-1.4-9.6-4c-2.6-2.6-4-6-4-9.7V-3441
					c0-7.5,6.1-13.6,13.7-13.7c31.8-0.1,85.1-6.7,121.9-45.2v214.4c0,2.5-0.7,4.9-1.9,6.9C-351.7-3229.9-409.7-3222.5-441.5-3222.4z
					"/>
				<path d="M-162.9-3441v204.9c0,3.7-1.4,7.1-4,9.7c-2.6,2.6-6,4-9.6,4c0,0,0,0,0,0c-31.9-0.1-89.9-7.5-120-56
					c-1.2-2-1.9-4.4-1.9-6.9v-214.4c36.8,38.5,90,45.1,121.9,45.2C-169-3454.6-162.9-3448.5-162.9-3441z"/>
				<path d="M-131.8-3269.7h-9.9V-3441c0-19.2-15.6-34.8-34.8-34.9c-27-0.1-71.5-5.3-103-35.2c54.5,13.3,111.9,4.7,144.7-2.8
					c4.1-0.9,8.3,0,11.6,2.6c3.3,2.6,5.1,6.5,5.1,10.7v217.2C-118.1-3275.8-124.2-3269.7-131.8-3269.7z"/>
				<path d="M-476.4-3441v171.3h-9.9c-7.5,0-13.7-6.1-13.7-13.7v-217.2c0-4.2,1.9-8.1,5.1-10.7c3.3-2.6,7.5-3.6,11.6-2.6
					c32.7,7.5,90.2,16.1,144.7,2.8c-31.5,29.8-76,35.1-103,35.2C-460.7-3475.8-476.4-3460.2-476.4-3441z"/>
			</g>
		</g>
		<g>
			<g id="L1_6_13_" transform="matrix(0.20202088356018066 0 0 0.20202088356018066 101 200.99999898890917)">
				<path d="M1786-3222.4C1785.9-3222.4,1785.9-3222.4,1786-3222.4c-3.6,0-7-1.4-9.6-4c-2.6-2.6-4-6-4-9.7V-3441
					c0-7.5,6.1-13.6,13.7-13.7c31.8-0.1,85.1-6.7,121.9-45.2v214.4c0,2.5-0.7,4.9-1.9,6.9C1875.8-3229.9,1817.8-3222.5,1786-3222.4z
					"/>
				<path d="M2064.6-3441v204.9c0,3.7-1.4,7.1-4,9.7c-2.6,2.6-6,4-9.6,4c0,0,0,0,0,0c-31.9-0.1-89.9-7.5-120-56
					c-1.2-2-1.9-4.4-1.9-6.9v-214.4c36.8,38.5,90,45.1,121.9,45.2C2058.5-3454.6,2064.6-3448.5,2064.6-3441z"/>
				<path d="M2095.7-3269.7h-9.9V-3441c0-19.2-15.6-34.8-34.8-34.9c-27-0.1-71.5-5.3-103-35.2c54.5,13.3,111.9,4.7,144.7-2.8
					c4.1-0.9,8.3,0,11.6,2.6c3.3,2.6,5.1,6.5,5.1,10.7v217.2C2109.4-3275.8,2103.3-3269.7,2095.7-3269.7z"/>
				<path d="M1751.1-3441v171.3h-9.9c-7.5,0-13.7-6.1-13.7-13.7v-217.2c0-4.2,1.9-8.1,5.1-10.7c3.3-2.6,7.5-3.6,11.6-2.6
					c32.7,7.5,90.2,16.1,144.7,2.8c-31.5,29.8-76,35.1-103,35.2C1766.7-3475.8,1751.1-3460.2,1751.1-3441z"/>
			</g>
		</g>
		<g>
			<g id="L1_6_12_" transform="matrix(0.20202088356018066 0 0 0.20202088356018066 101 200.99999898890917)">
				<path d="M4013.4-3222.4C4013.4-3222.4,4013.4-3222.4,4013.4-3222.4c-3.6,0-7-1.4-9.6-4c-2.6-2.6-4-6-4-9.7V-3441
					c0-7.5,6.1-13.6,13.7-13.7c31.8-0.1,85.1-6.7,121.9-45.2v214.4c0,2.5-0.7,4.9-1.9,6.9
					C4103.3-3229.9,4045.3-3222.5,4013.4-3222.4z"/>
				<path d="M4292.1-3441v204.9c0,3.7-1.4,7.1-4,9.7c-2.6,2.6-6,4-9.6,4c0,0,0,0,0,0c-31.9-0.1-89.9-7.5-120-56
					c-1.2-2-1.9-4.4-1.9-6.9v-214.4c36.8,38.5,90,45.1,121.9,45.2C4286-3454.6,4292.1-3448.5,4292.1-3441z"/>
				<path d="M4323.2-3269.7h-9.9V-3441c0-19.2-15.6-34.8-34.8-34.9c-27-0.1-71.5-5.3-103-35.2c54.5,13.3,111.9,4.7,144.7-2.8
					c4.1-0.9,8.3,0,11.6,2.6c3.3,2.6,5.1,6.5,5.1,10.7v217.2C4336.9-3275.8,4330.8-3269.7,4323.2-3269.7z"/>
				<path d="M3978.6-3441v171.3h-9.9c-7.5,0-13.7-6.1-13.7-13.7v-217.2c0-4.2,1.9-8.1,5.1-10.7c3.3-2.6,7.5-3.6,11.6-2.6
					c32.7,7.5,90.2,16.1,144.7,2.8c-31.5,29.8-76,35.1-103,35.2C3994.2-3475.8,3978.6-3460.2,3978.6-3441z"/>
			</g>
		</g>
		<g>
			<g id="L1_6_11_" transform="matrix(0.20202088356018066 0 0 0.20202088356018066 101 200.99999898890917)">
				<path d="M-441.5-5449.9C-441.5-5449.9-441.6-5449.9-441.5-5449.9c-3.6,0-7-1.4-9.6-4c-2.6-2.6-4-6-4-9.7v-204.9
					c0-7.5,6.1-13.6,13.7-13.7c31.8-0.1,85.1-6.7,121.9-45.2v214.4c0,2.5-0.7,4.9-1.9,6.9C-351.7-5457.4-409.7-5450-441.5-5449.9z"
					/>
				<path d="M-162.9-5668.5v204.9c0,3.7-1.4,7.1-4,9.7c-2.6,2.6-6,4-9.6,4c0,0,0,0,0,0c-31.9-0.1-89.9-7.5-120-56
					c-1.2-2-1.9-4.4-1.9-6.9v-214.4c36.8,38.5,90,45.1,121.9,45.2C-169-5682.1-162.9-5676-162.9-5668.5z"/>
				<path d="M-131.8-5497.2h-9.9v-171.3c0-19.2-15.6-34.8-34.8-34.9c-27-0.1-71.5-5.3-103-35.2c54.5,13.3,111.9,4.7,144.7-2.8
					c4.1-0.9,8.3,0,11.6,2.6c3.3,2.6,5.1,6.5,5.1,10.7v217.2C-118.1-5503.3-124.2-5497.2-131.8-5497.2z"/>
				<path d="M-476.4-5668.5v171.3h-9.9c-7.5,0-13.7-6.1-13.7-13.7V-5728c0-4.2,1.9-8.1,5.1-10.7c3.3-2.6,7.5-3.6,11.6-2.6
					c32.7,7.5,90.2,16.1,144.7,2.8c-31.5,29.8-76,35.1-103,35.2C-460.7-5703.3-476.4-5687.7-476.4-5668.5z"/>
			</g>
		</g>
		<g>
			<g id="L1_6_10_" transform="matrix(0.20202088356018066 0 0 0.20202088356018066 101 200.99999898890917)">
				<path d="M1786-5449.9C1785.9-5449.9,1785.9-5449.9,1786-5449.9c-3.6,0-7-1.4-9.6-4c-2.6-2.6-4-6-4-9.7v-204.9
					c0-7.5,6.1-13.6,13.7-13.7c31.8-0.1,85.1-6.7,121.9-45.2v214.4c0,2.5-0.7,4.9-1.9,6.9C1875.8-5457.4,1817.8-5450,1786-5449.9z"
					/>
				<path d="M2064.6-5668.5v204.9c0,3.7-1.4,7.1-4,9.7c-2.6,2.6-6,4-9.6,4c0,0,0,0,0,0c-31.9-0.1-89.9-7.5-120-56
					c-1.2-2-1.9-4.4-1.9-6.9v-214.4c36.8,38.5,90,45.1,121.9,45.2C2058.5-5682.1,2064.6-5676,2064.6-5668.5z"/>
				<path d="M2095.7-5497.2h-9.9v-171.3c0-19.2-15.6-34.8-34.8-34.9c-27-0.1-71.5-5.3-103-35.2c54.5,13.3,111.9,4.7,144.7-2.8
					c4.1-0.9,8.3,0,11.6,2.6c3.3,2.6,5.1,6.5,5.1,10.7v217.2C2109.4-5503.3,2103.3-5497.2,2095.7-5497.2z"/>
				<path d="M1751.1-5668.5v171.3h-9.9c-7.5,0-13.7-6.1-13.7-13.7V-5728c0-4.2,1.9-8.1,5.1-10.7c3.3-2.6,7.5-3.6,11.6-2.6
					c32.7,7.5,90.2,16.1,144.7,2.8c-31.5,29.8-76,35.1-103,35.2C1766.7-5703.3,1751.1-5687.7,1751.1-5668.5z"/>
			</g>
		</g>
		<g>
			<g id="L1_6_9_" transform="matrix(0.20202088356018066 0 0 0.20202088356018066 101 200.99999898890917)">
				<path d="M4013.4-5449.9C4013.4-5449.9,4013.4-5449.9,4013.4-5449.9c-3.6,0-7-1.4-9.6-4c-2.6-2.6-4-6-4-9.7v-204.9
					c0-7.5,6.1-13.6,13.7-13.7c31.8-0.1,85.1-6.7,121.9-45.2v214.4c0,2.5-0.7,4.9-1.9,6.9C4103.3-5457.4,4045.3-5450,4013.4-5449.9z
					"/>
				<path d="M4292.1-5668.5v204.9c0,3.7-1.4,7.1-4,9.7c-2.6,2.6-6,4-9.6,4c0,0,0,0,0,0c-31.9-0.1-89.9-7.5-120-56
					c-1.2-2-1.9-4.4-1.9-6.9v-214.4c36.8,38.5,90,45.1,121.9,45.2C4286-5682.1,4292.1-5676,4292.1-5668.5z"/>
				<path d="M4323.2-5497.2h-9.9v-171.3c0-19.2-15.6-34.8-34.8-34.9c-27-0.1-71.5-5.3-103-35.2c54.5,13.3,111.9,4.7,144.7-2.8
					c4.1-0.9,8.3,0,11.6,2.6c3.3,2.6,5.1,6.5,5.1,10.7v217.2C4336.9-5503.3,4330.8-5497.2,4323.2-5497.2z"/>
				<path d="M3978.6-5668.5v171.3h-9.9c-7.5,0-13.7-6.1-13.7-13.7V-5728c0-4.2,1.9-8.1,5.1-10.7c3.3-2.6,7.5-3.6,11.6-2.6
					c32.7,7.5,90.2,16.1,144.7,2.8c-31.5,29.8-76,35.1-103,35.2C3994.2-5703.3,3978.6-5687.7,3978.6-5668.5z"/>
			</g>
		</g>
	</g>
</pattern>
<pattern  y="1080" width="450" height="450" patternUnits="userSpaceOnUse" id="pattern_L1_8" viewBox="119.6 -708.4 450 450" style="overflow:visible;">
	<g>
		<rect x="119.6" y="-708.4" class="st0" width="450" height="450"/>
		<g>
			<g id="L1_8_17_" transform="matrix(1 0 0 1 257 149)">
				<path id="L1_7_17_" class="st1" d="M-181.6-162l-36,12.9c-0.6,0.2-1.2,0.2-1.8,0l-36-12.9c-1-0.4-1.7-1.3-1.7-2.4
					c0-1.1,0.7-2.1,1.7-2.4l17.6-6.3v-8c0-5,17.3-5.1,19.3-5.1s19.3,0.1,19.3,5.1v8l3.9,1.4v-3c0-1.4,1.2-2.6,2.6-2.6h2.6
					c1.4,0,2.6,1.2,2.6,2.6v3.9c0,0.6-0.1,1.2-0.4,1.7l6.4,2.3c1,0.4,1.7,1.3,1.7,2.4C-179.9-163.3-180.5-162.4-181.6-162
					L-181.6-162z M-201.7-178.3c-4.9,2.2-15.2,2.3-16.7,2.3s-11.8-0.1-16.7-2.3v11.2c0.8,1,6.8,2.7,16.7,2.7s15.9-1.7,16.7-2.7
					V-178.3z M-218.4-183.7c-9.5,0-15.5,1.6-16.6,2.6c1.1,1,7.1,2.6,16.6,2.6s15.5-1.6,16.6-2.6
					C-202.9-182.1-208.9-183.7-218.4-183.7z M-194.7-168.8l-4.5-1.6v3.4c0,5-17.3,5.1-19.3,5.1s-19.3-0.1-19.3-5.1v-3.4l-16.7,6
					l36,12.9l25.7-9.2v-6.5C-193.5-167.5-194.2-168.1-194.7-168.8z M-190.1-174.7h-2.6v3.9c0,0.7,0.6,1.3,1.3,1.3s1.3-0.6,1.3-1.3
					V-174.7z M-190.1-167.2v5.5l7.7-2.8L-190.1-167.2z"/>
				<path id="Shape_17_" class="st1" d="M-183.7-188.9c-0.1,0-0.2,0-0.2,0c-11.4-1.8-22.9-2.6-34.5-2.6c-11.5-0.1-23.1,0.8-34.5,2.6
					c-0.1,0-0.2,0-0.2,0c-0.9,0-3.9-1-3.9-14.1s3-14.1,3.9-14.1c0.1,0,0.2,0,0.2,0c8.8,1.4,17.6,2.2,26.5,2.4l-2.5-6
					c-0.4-1-0.2-2.1,0.6-2.8c0.7-0.7,1.9-0.9,2.8-0.5l1,0.4l0.4-1c0.4-0.9,1.3-1.6,2.4-1.6h0c1,0,2,0.6,2.4,1.6l2.2,5.3l2.2-5.3
					c0.4-1,1.3-1.6,2.4-1.6h0c1,0,2,0.6,2.4,1.5l0.4,1l1-0.4c1-0.4,2.1-0.2,2.8,0.5s1,1.8,0.6,2.8l-2.5,5.9c8-0.3,16-1.1,23.9-2.3
					c0.1,0,0.1,0,0.2,0c0.9,0,3.9,1,3.9,14.1C-179.9-189.9-182.8-188.9-183.7-188.9z M-214.3-194c0.5-2,0.8-4,0.9-6
					c-2.9,1.4-6.3,1-8.9-0.8c-0.1,2.3-0.4,4.6-0.9,6.9c1.6,0,3.2,0,4.8,0C-217-194-215.7-194-214.3-194z M-217.1-214.6
					c-3.6,0-6.4,2.9-6.4,6.4s2.9,6.4,6.4,6.4s6.4-2.9,6.4-6.4C-210.7-211.7-213.6-214.6-217.1-214.6z M-253.1-192.1
					c1-3.6,1.4-7.2,1.3-10.9c0.1-3.7-0.3-7.4-1.3-10.9c-1,3.6-1.4,7.2-1.3,10.9C-254.6-199.3-254.1-195.6-253.1-192.1z
					 M-250.5-214.1c0.7,2,1.3,5.5,1.3,11.1s-0.6,9.1-1.3,11.1c8.2-1.1,16.4-1.8,24.6-2c0.8-3,1.1-6,1-9.1c0-0.2,0-0.4,0-0.5
					c-1.5-2.6-1.7-5.7-0.4-8.4l-0.1-0.1C-233.8-212.3-242.2-213-250.5-214.1L-250.5-214.1z M-221.8-223.6l-0.9,2.2
					c-0.3,0.6-1,0.9-1.7,0.7l-2.2-1l3,7.2c1.2-1.3,2.8-2.1,4.5-2.5L-221.8-223.6z M-209.9-220.7c-0.7,0.3-1.4,0-1.7-0.7l-1-2.1
					l-2.8,6.6c1.7,0.4,3.3,1.2,4.5,2.5l3-7.2L-209.9-220.7z M-184-214.5c-8.3,1.3-16.6,2-24.9,2.3l-0.1,0.2
					c1.6,3.4,0.9,7.5-1.7,10.1c0,2.7-0.3,5.3-0.9,7.9c9.3,0.2,18.5,1,27.7,2.4c0.6-1,1.5-5,1.5-11.5S-183.4-213.5-184-214.5z"/>
			</g>
		</g>
		<g>
			<g id="L1_8_16_" transform="matrix(1 0 0 1 257 149)">
				<path id="L1_7_16_" class="st1" d="M268.4-162l-36,12.9c-0.6,0.2-1.2,0.2-1.8,0l-36-12.9c-1-0.4-1.7-1.3-1.7-2.4
					c0-1.1,0.7-2.1,1.7-2.4l17.6-6.3v-8c0-5,17.3-5.1,19.3-5.1s19.3,0.1,19.3,5.1v8l3.9,1.4v-3c0-1.4,1.2-2.6,2.6-2.6h2.6
					c1.4,0,2.6,1.2,2.6,2.6v3.9c0,0.6-0.1,1.2-0.4,1.7l6.4,2.3c1,0.4,1.7,1.3,1.7,2.4C270.1-163.3,269.5-162.4,268.4-162L268.4-162z
					 M248.3-178.3c-4.9,2.2-15.2,2.3-16.7,2.3c-1.5,0-11.8-0.1-16.7-2.3v11.2c0.8,1,6.8,2.7,16.7,2.7c9.9,0,15.9-1.7,16.7-2.7
					V-178.3z M231.6-183.7c-9.5,0-15.5,1.6-16.6,2.6c1.1,1,7.1,2.6,16.6,2.6s15.5-1.6,16.6-2.6C247.1-182.1,241.1-183.7,231.6-183.7
					z M255.3-168.8l-4.5-1.6v3.4c0,5-17.3,5.1-19.3,5.1s-19.3-0.1-19.3-5.1v-3.4l-16.7,6l36,12.9l25.7-9.2v-6.5
					C256.5-167.5,255.8-168.1,255.3-168.8z M259.9-174.7h-2.6v3.9c0,0.7,0.6,1.3,1.3,1.3s1.3-0.6,1.3-1.3V-174.7z M259.9-167.2v5.5
					l7.7-2.8L259.9-167.2z"/>
				<path id="Shape_16_" class="st1" d="M266.3-188.9c-0.1,0-0.2,0-0.2,0c-11.4-1.8-22.9-2.6-34.5-2.6c-11.5-0.1-23.1,0.8-34.5,2.6
					c-0.1,0-0.2,0-0.2,0c-0.9,0-3.9-1-3.9-14.1s3-14.1,3.9-14.1c0.1,0,0.2,0,0.2,0c8.8,1.4,17.6,2.2,26.5,2.4l-2.5-6
					c-0.4-1-0.2-2.1,0.6-2.8c0.7-0.7,1.9-0.9,2.8-0.5l1,0.4l0.4-1c0.4-0.9,1.3-1.6,2.4-1.6h0c1,0,2,0.6,2.4,1.6l2.2,5.3l2.2-5.3
					c0.4-1,1.3-1.6,2.4-1.6h0c1,0,2,0.6,2.4,1.5l0.4,1l1-0.4c1-0.4,2.1-0.2,2.8,0.5c0.7,0.7,1,1.8,0.6,2.8l-2.5,5.9
					c8-0.3,16-1.1,23.9-2.3c0.1,0,0.1,0,0.2,0c0.9,0,3.9,1,3.9,14.1C270.1-189.9,267.2-188.9,266.3-188.9z M235.7-194
					c0.5-2,0.8-4,0.9-6c-2.9,1.4-6.3,1-8.9-0.8c-0.1,2.3-0.4,4.6-0.9,6.9c1.6,0,3.2,0,4.8,0C233-194,234.3-194,235.7-194z
					 M232.9-214.6c-3.6,0-6.4,2.9-6.4,6.4s2.9,6.4,6.4,6.4s6.4-2.9,6.4-6.4C239.3-211.7,236.4-214.6,232.9-214.6z M196.9-192.1
					c1-3.6,1.4-7.2,1.3-10.9c0.1-3.7-0.3-7.4-1.3-10.9c-1,3.6-1.4,7.2-1.3,10.9C195.4-199.3,195.9-195.6,196.9-192.1z M199.5-214.1
					c0.7,2,1.3,5.5,1.3,11.1s-0.6,9.1-1.3,11.1c8.2-1.1,16.4-1.8,24.6-2c0.8-3,1.1-6,1-9.1c0-0.2,0-0.4,0-0.5
					c-1.5-2.6-1.7-5.7-0.4-8.4l-0.1-0.1C216.2-212.3,207.8-213,199.5-214.1L199.5-214.1z M228.2-223.6l-0.9,2.2
					c-0.3,0.6-1,0.9-1.7,0.7l-2.2-1l3,7.2c1.2-1.3,2.8-2.1,4.5-2.5L228.2-223.6z M240.1-220.7c-0.7,0.3-1.4,0-1.7-0.7l-1-2.1
					l-2.8,6.6c1.7,0.4,3.3,1.2,4.5,2.5l3-7.2L240.1-220.7z M266-214.5c-8.3,1.3-16.6,2-24.9,2.3L241-212c1.6,3.4,0.9,7.5-1.7,10.1
					c0,2.7-0.3,5.3-0.9,7.9c9.3,0.2,18.5,1,27.7,2.4c0.6-1,1.5-5,1.5-11.5S266.6-213.5,266-214.5z"/>
			</g>
		</g>
		<g>
			<g id="L1_8_15_" transform="matrix(1 0 0 1 257 149)">
				<path id="L1_7_15_" class="st1" d="M718.4-162l-36,12.9c-0.6,0.2-1.2,0.2-1.8,0l-36-12.9c-1-0.4-1.7-1.3-1.7-2.4
					c0-1.1,0.7-2.1,1.7-2.4l17.6-6.3v-8c0-5,17.3-5.1,19.3-5.1s19.3,0.1,19.3,5.1v8l3.9,1.4v-3c0-1.4,1.2-2.6,2.6-2.6h2.6
					c1.4,0,2.6,1.2,2.6,2.6v3.9c0,0.6-0.1,1.2-0.4,1.7l6.4,2.3c1,0.4,1.7,1.3,1.7,2.4C720.1-163.3,719.5-162.4,718.4-162L718.4-162z
					 M698.3-178.3c-4.9,2.2-15.2,2.3-16.7,2.3s-11.8-0.1-16.7-2.3v11.2c0.8,1,6.8,2.7,16.7,2.7c9.9,0,15.9-1.7,16.7-2.7V-178.3z
					 M681.6-183.7c-9.5,0-15.5,1.6-16.6,2.6c1.1,1,7.1,2.6,16.6,2.6s15.5-1.6,16.6-2.6C697.1-182.1,691.1-183.7,681.6-183.7z
					 M705.3-168.8l-4.5-1.6v3.4c0,5-17.3,5.1-19.3,5.1s-19.3-0.1-19.3-5.1v-3.4l-16.7,6l36,12.9l25.7-9.2v-6.5
					C706.5-167.5,705.8-168.1,705.3-168.8z M709.9-174.7h-2.6v3.9c0,0.7,0.6,1.3,1.3,1.3s1.3-0.6,1.3-1.3V-174.7z M709.9-167.2v5.5
					l7.7-2.8L709.9-167.2z"/>
				<path id="Shape_15_" class="st1" d="M716.3-188.9c-0.1,0-0.2,0-0.2,0c-11.4-1.8-22.9-2.6-34.5-2.6c-11.5-0.1-23.1,0.8-34.5,2.6
					c-0.1,0-0.2,0-0.2,0c-0.9,0-3.9-1-3.9-14.1s3-14.1,3.9-14.1c0.1,0,0.2,0,0.2,0c8.8,1.4,17.6,2.2,26.5,2.4l-2.5-6
					c-0.4-1-0.2-2.1,0.6-2.8c0.7-0.7,1.9-0.9,2.8-0.5l1,0.4l0.4-1c0.4-0.9,1.3-1.6,2.4-1.6h0c1,0,2,0.6,2.4,1.6l2.2,5.3l2.2-5.3
					c0.4-1,1.3-1.6,2.4-1.6h0c1,0,2,0.6,2.4,1.5l0.4,1l1-0.4c1-0.4,2.1-0.2,2.8,0.5s1,1.8,0.6,2.8l-2.5,5.9c8-0.3,16-1.1,23.9-2.3
					c0.1,0,0.1,0,0.2,0c0.9,0,3.9,1,3.9,14.1C720.1-189.9,717.2-188.9,716.3-188.9z M685.7-194c0.5-2,0.8-4,0.9-6
					c-2.9,1.4-6.3,1-8.9-0.8c-0.1,2.3-0.4,4.6-0.9,6.9c1.6,0,3.2,0,4.8,0C683-194,684.3-194,685.7-194z M682.9-214.6
					c-3.6,0-6.4,2.9-6.4,6.4s2.9,6.4,6.4,6.4s6.4-2.9,6.4-6.4C689.3-211.7,686.4-214.6,682.9-214.6z M646.9-192.1
					c1-3.6,1.4-7.2,1.3-10.9c0.1-3.7-0.3-7.4-1.3-10.9c-1,3.6-1.4,7.2-1.3,10.9C645.4-199.3,645.9-195.6,646.9-192.1z M649.5-214.1
					c0.7,2,1.3,5.5,1.3,11.1s-0.6,9.1-1.3,11.1c8.2-1.1,16.4-1.8,24.6-2c0.8-3,1.1-6,1-9.1c0-0.2,0-0.4,0-0.5
					c-1.5-2.6-1.7-5.7-0.4-8.4l-0.1-0.1C666.2-212.3,657.8-213,649.5-214.1L649.5-214.1z M678.2-223.6l-0.9,2.2
					c-0.3,0.6-1,0.9-1.7,0.7l-2.2-1l3,7.2c1.2-1.3,2.8-2.1,4.5-2.5L678.2-223.6z M690.1-220.7c-0.7,0.3-1.4,0-1.7-0.7l-1-2.1
					l-2.8,6.6c1.7,0.4,3.3,1.2,4.5,2.5l3-7.2L690.1-220.7z M716-214.5c-8.3,1.3-16.6,2-24.9,2.3L691-212c1.6,3.4,0.9,7.5-1.7,10.1
					c0,2.7-0.3,5.3-0.9,7.9c9.3,0.2,18.5,1,27.7,2.4c0.6-1,1.5-5,1.5-11.5S716.6-213.5,716-214.5z"/>
			</g>
		</g>
		<g>
			<g id="L1_8_14_" transform="matrix(1 0 0 1 257 149)">
				<path id="L1_7_14_" class="st1" d="M-181.6-612l-36,12.9c-0.6,0.2-1.2,0.2-1.8,0l-36-12.9c-1-0.4-1.7-1.3-1.7-2.4
					c0-1.1,0.7-2.1,1.7-2.4l17.6-6.3v-8c0-5,17.3-5.1,19.3-5.1s19.3,0.1,19.3,5.1v8l3.9,1.4v-3c0-1.4,1.2-2.6,2.6-2.6h2.6
					c1.4,0,2.6,1.2,2.6,2.6v3.9c0,0.6-0.1,1.2-0.4,1.7l6.4,2.3c1,0.4,1.7,1.3,1.7,2.4S-180.5-612.4-181.6-612L-181.6-612z
					 M-201.7-628.3c-4.9,2.2-15.2,2.3-16.7,2.3s-11.8-0.1-16.7-2.3v11.2c0.8,1,6.8,2.7,16.7,2.7s15.9-1.7,16.7-2.7V-628.3z
					 M-218.4-633.7c-9.5,0-15.5,1.6-16.6,2.6c1.1,1,7.1,2.6,16.6,2.6s15.5-1.6,16.6-2.6C-202.9-632.1-208.9-633.7-218.4-633.7z
					 M-194.7-618.8l-4.5-1.6v3.4c0,5-17.3,5.1-19.3,5.1s-19.3-0.1-19.3-5.1v-3.4l-16.7,6l36,12.9l25.7-9.2v-6.5
					C-193.5-617.5-194.2-618.1-194.7-618.8z M-190.1-624.7h-2.6v3.9c0,0.7,0.6,1.3,1.3,1.3s1.3-0.6,1.3-1.3V-624.7z M-190.1-617.2
					v5.5l7.7-2.8L-190.1-617.2z"/>
				<path id="Shape_14_" class="st1" d="M-183.7-638.9c-0.1,0-0.2,0-0.2,0c-11.4-1.8-22.9-2.6-34.5-2.6c-11.5-0.1-23.1,0.8-34.5,2.6
					c-0.1,0-0.2,0-0.2,0c-0.9,0-3.9-1-3.9-14.1s3-14.1,3.9-14.1c0.1,0,0.2,0,0.2,0c8.8,1.4,17.6,2.2,26.5,2.4l-2.5-6
					c-0.4-1-0.2-2.1,0.6-2.8c0.7-0.7,1.9-0.9,2.8-0.5l1,0.4l0.4-1c0.4-0.9,1.3-1.6,2.4-1.6h0c1,0,2,0.6,2.4,1.6l2.2,5.3l2.2-5.3
					c0.4-1,1.3-1.6,2.4-1.6h0c1,0,2,0.6,2.4,1.5l0.4,1l1-0.4c1-0.4,2.1-0.2,2.8,0.5c0.7,0.7,1,1.8,0.6,2.8l-2.5,5.9
					c8-0.3,16-1.1,23.9-2.3c0.1,0,0.1,0,0.2,0c0.9,0,3.9,1,3.9,14.1S-182.8-638.9-183.7-638.9z M-214.3-644c0.5-2,0.8-4,0.9-6
					c-2.9,1.4-6.3,1-8.9-0.8c-0.1,2.3-0.4,4.6-0.9,6.9c1.6,0,3.2,0,4.8,0C-217-644-215.7-644-214.3-644z M-217.1-664.6
					c-3.6,0-6.4,2.9-6.4,6.4c0,3.6,2.9,6.4,6.4,6.4s6.4-2.9,6.4-6.4C-210.7-661.7-213.6-664.6-217.1-664.6z M-253.1-642.1
					c1-3.6,1.4-7.2,1.3-10.9c0.1-3.7-0.3-7.4-1.3-10.9c-1,3.6-1.4,7.2-1.3,10.9C-254.6-649.3-254.1-645.6-253.1-642.1z
					 M-250.5-664.1c0.7,2,1.3,5.5,1.3,11.1c0,5.7-0.6,9.1-1.3,11.1c8.2-1.1,16.4-1.8,24.6-2c0.8-3,1.1-6,1-9.1c0-0.2,0-0.4,0-0.5
					c-1.5-2.6-1.7-5.7-0.4-8.4l-0.1-0.1C-233.8-662.3-242.2-663-250.5-664.1L-250.5-664.1z M-221.8-673.6l-0.9,2.2
					c-0.3,0.6-1,0.9-1.7,0.7l-2.2-1l3,7.2c1.2-1.3,2.8-2.1,4.5-2.5L-221.8-673.6z M-209.9-670.7c-0.7,0.3-1.4,0-1.7-0.7l-1-2.1
					l-2.8,6.6c1.7,0.4,3.3,1.2,4.5,2.5l3-7.2L-209.9-670.7z M-184-664.5c-8.3,1.3-16.6,2-24.9,2.3l-0.1,0.2
					c1.6,3.4,0.9,7.5-1.7,10.1c0,2.7-0.3,5.3-0.9,7.9c9.3,0.2,18.5,1,27.7,2.4c0.6-1,1.5-5,1.5-11.5S-183.4-663.5-184-664.5z"/>
			</g>
		</g>
		<g>
			<g id="L1_8_13_" transform="matrix(1 0 0 1 257 149)">
				<path id="L1_7_13_" class="st1" d="M268.4-612l-36,12.9c-0.6,0.2-1.2,0.2-1.8,0l-36-12.9c-1-0.4-1.7-1.3-1.7-2.4
					c0-1.1,0.7-2.1,1.7-2.4l17.6-6.3v-8c0-5,17.3-5.1,19.3-5.1s19.3,0.1,19.3,5.1v8l3.9,1.4v-3c0-1.4,1.2-2.6,2.6-2.6h2.6
					c1.4,0,2.6,1.2,2.6,2.6v3.9c0,0.6-0.1,1.2-0.4,1.7l6.4,2.3c1,0.4,1.7,1.3,1.7,2.4S269.5-612.4,268.4-612L268.4-612z
					 M248.3-628.3c-4.9,2.2-15.2,2.3-16.7,2.3c-1.5,0-11.8-0.1-16.7-2.3v11.2c0.8,1,6.8,2.7,16.7,2.7c9.9,0,15.9-1.7,16.7-2.7
					V-628.3z M231.6-633.7c-9.5,0-15.5,1.6-16.6,2.6c1.1,1,7.1,2.6,16.6,2.6s15.5-1.6,16.6-2.6C247.1-632.1,241.1-633.7,231.6-633.7
					z M255.3-618.8l-4.5-1.6v3.4c0,5-17.3,5.1-19.3,5.1s-19.3-0.1-19.3-5.1v-3.4l-16.7,6l36,12.9l25.7-9.2v-6.5
					C256.5-617.5,255.8-618.1,255.3-618.8z M259.9-624.7h-2.6v3.9c0,0.7,0.6,1.3,1.3,1.3s1.3-0.6,1.3-1.3V-624.7z M259.9-617.2v5.5
					l7.7-2.8L259.9-617.2z"/>
				<path id="Shape_13_" class="st1" d="M266.3-638.9c-0.1,0-0.2,0-0.2,0c-11.4-1.8-22.9-2.6-34.5-2.6c-11.5-0.1-23.1,0.8-34.5,2.6
					c-0.1,0-0.2,0-0.2,0c-0.9,0-3.9-1-3.9-14.1s3-14.1,3.9-14.1c0.1,0,0.2,0,0.2,0c8.8,1.4,17.6,2.2,26.5,2.4l-2.5-6
					c-0.4-1-0.2-2.1,0.6-2.8c0.7-0.7,1.9-0.9,2.8-0.5l1,0.4l0.4-1c0.4-0.9,1.3-1.6,2.4-1.6h0c1,0,2,0.6,2.4,1.6l2.2,5.3l2.2-5.3
					c0.4-1,1.3-1.6,2.4-1.6h0c1,0,2,0.6,2.4,1.5l0.4,1l1-0.4c1-0.4,2.1-0.2,2.8,0.5c0.7,0.7,1,1.8,0.6,2.8l-2.5,5.9
					c8-0.3,16-1.1,23.9-2.3c0.1,0,0.1,0,0.2,0c0.9,0,3.9,1,3.9,14.1S267.2-638.9,266.3-638.9z M235.7-644c0.5-2,0.8-4,0.9-6
					c-2.9,1.4-6.3,1-8.9-0.8c-0.1,2.3-0.4,4.6-0.9,6.9c1.6,0,3.2,0,4.8,0C233-644,234.3-644,235.7-644z M232.9-664.6
					c-3.6,0-6.4,2.9-6.4,6.4c0,3.6,2.9,6.4,6.4,6.4s6.4-2.9,6.4-6.4C239.3-661.7,236.4-664.6,232.9-664.6z M196.9-642.1
					c1-3.6,1.4-7.2,1.3-10.9c0.1-3.7-0.3-7.4-1.3-10.9c-1,3.6-1.4,7.2-1.3,10.9C195.4-649.3,195.9-645.6,196.9-642.1z M199.5-664.1
					c0.7,2,1.3,5.5,1.3,11.1c0,5.7-0.6,9.1-1.3,11.1c8.2-1.1,16.4-1.8,24.6-2c0.8-3,1.1-6,1-9.1c0-0.2,0-0.4,0-0.5
					c-1.5-2.6-1.7-5.7-0.4-8.4l-0.1-0.1C216.2-662.3,207.8-663,199.5-664.1L199.5-664.1z M228.2-673.6l-0.9,2.2
					c-0.3,0.6-1,0.9-1.7,0.7l-2.2-1l3,7.2c1.2-1.3,2.8-2.1,4.5-2.5L228.2-673.6z M240.1-670.7c-0.7,0.3-1.4,0-1.7-0.7l-1-2.1
					l-2.8,6.6c1.7,0.4,3.3,1.2,4.5,2.5l3-7.2L240.1-670.7z M266-664.5c-8.3,1.3-16.6,2-24.9,2.3L241-662c1.6,3.4,0.9,7.5-1.7,10.1
					c0,2.7-0.3,5.3-0.9,7.9c9.3,0.2,18.5,1,27.7,2.4c0.6-1,1.5-5,1.5-11.5S266.6-663.5,266-664.5z"/>
			</g>
		</g>
		<g>
			<g id="L1_8_12_" transform="matrix(1 0 0 1 257 149)">
				<path id="L1_7_12_" class="st1" d="M718.4-612l-36,12.9c-0.6,0.2-1.2,0.2-1.8,0l-36-12.9c-1-0.4-1.7-1.3-1.7-2.4
					c0-1.1,0.7-2.1,1.7-2.4l17.6-6.3v-8c0-5,17.3-5.1,19.3-5.1s19.3,0.1,19.3,5.1v8l3.9,1.4v-3c0-1.4,1.2-2.6,2.6-2.6h2.6
					c1.4,0,2.6,1.2,2.6,2.6v3.9c0,0.6-0.1,1.2-0.4,1.7l6.4,2.3c1,0.4,1.7,1.3,1.7,2.4S719.5-612.4,718.4-612L718.4-612z
					 M698.3-628.3c-4.9,2.2-15.2,2.3-16.7,2.3s-11.8-0.1-16.7-2.3v11.2c0.8,1,6.8,2.7,16.7,2.7c9.9,0,15.9-1.7,16.7-2.7V-628.3z
					 M681.6-633.7c-9.5,0-15.5,1.6-16.6,2.6c1.1,1,7.1,2.6,16.6,2.6s15.5-1.6,16.6-2.6C697.1-632.1,691.1-633.7,681.6-633.7z
					 M705.3-618.8l-4.5-1.6v3.4c0,5-17.3,5.1-19.3,5.1s-19.3-0.1-19.3-5.1v-3.4l-16.7,6l36,12.9l25.7-9.2v-6.5
					C706.5-617.5,705.8-618.1,705.3-618.8z M709.9-624.7h-2.6v3.9c0,0.7,0.6,1.3,1.3,1.3s1.3-0.6,1.3-1.3V-624.7z M709.9-617.2v5.5
					l7.7-2.8L709.9-617.2z"/>
				<path id="Shape_12_" class="st1" d="M716.3-638.9c-0.1,0-0.2,0-0.2,0c-11.4-1.8-22.9-2.6-34.5-2.6c-11.5-0.1-23.1,0.8-34.5,2.6
					c-0.1,0-0.2,0-0.2,0c-0.9,0-3.9-1-3.9-14.1s3-14.1,3.9-14.1c0.1,0,0.2,0,0.2,0c8.8,1.4,17.6,2.2,26.5,2.4l-2.5-6
					c-0.4-1-0.2-2.1,0.6-2.8c0.7-0.7,1.9-0.9,2.8-0.5l1,0.4l0.4-1c0.4-0.9,1.3-1.6,2.4-1.6h0c1,0,2,0.6,2.4,1.6l2.2,5.3l2.2-5.3
					c0.4-1,1.3-1.6,2.4-1.6h0c1,0,2,0.6,2.4,1.5l0.4,1l1-0.4c1-0.4,2.1-0.2,2.8,0.5c0.7,0.7,1,1.8,0.6,2.8l-2.5,5.9
					c8-0.3,16-1.1,23.9-2.3c0.1,0,0.1,0,0.2,0c0.9,0,3.9,1,3.9,14.1S717.2-638.9,716.3-638.9z M685.7-644c0.5-2,0.8-4,0.9-6
					c-2.9,1.4-6.3,1-8.9-0.8c-0.1,2.3-0.4,4.6-0.9,6.9c1.6,0,3.2,0,4.8,0C683-644,684.3-644,685.7-644z M682.9-664.6
					c-3.6,0-6.4,2.9-6.4,6.4c0,3.6,2.9,6.4,6.4,6.4s6.4-2.9,6.4-6.4C689.3-661.7,686.4-664.6,682.9-664.6z M646.9-642.1
					c1-3.6,1.4-7.2,1.3-10.9c0.1-3.7-0.3-7.4-1.3-10.9c-1,3.6-1.4,7.2-1.3,10.9C645.4-649.3,645.9-645.6,646.9-642.1z M649.5-664.1
					c0.7,2,1.3,5.5,1.3,11.1c0,5.7-0.6,9.1-1.3,11.1c8.2-1.1,16.4-1.8,24.6-2c0.8-3,1.1-6,1-9.1c0-0.2,0-0.4,0-0.5
					c-1.5-2.6-1.7-5.7-0.4-8.4l-0.1-0.1C666.2-662.3,657.8-663,649.5-664.1L649.5-664.1z M678.2-673.6l-0.9,2.2
					c-0.3,0.6-1,0.9-1.7,0.7l-2.2-1l3,7.2c1.2-1.3,2.8-2.1,4.5-2.5L678.2-673.6z M690.1-670.7c-0.7,0.3-1.4,0-1.7-0.7l-1-2.1
					l-2.8,6.6c1.7,0.4,3.3,1.2,4.5,2.5l3-7.2L690.1-670.7z M716-664.5c-8.3,1.3-16.6,2-24.9,2.3L691-662c1.6,3.4,0.9,7.5-1.7,10.1
					c0,2.7-0.3,5.3-0.9,7.9c9.3,0.2,18.5,1,27.7,2.4c0.6-1,1.5-5,1.5-11.5S716.6-663.5,716-664.5z"/>
			</g>
		</g>
		<g>
			<g id="L1_8_11_" transform="matrix(1 0 0 1 257 149)">
				<path id="L1_7_11_" class="st1" d="M-181.6-1062l-36,12.9c-0.6,0.2-1.2,0.2-1.8,0l-36-12.9c-1-0.4-1.7-1.3-1.7-2.4
					s0.7-2.1,1.7-2.4l17.6-6.3v-8c0-5,17.3-5.1,19.3-5.1s19.3,0.1,19.3,5.1v8l3.9,1.4v-3c0-1.4,1.2-2.6,2.6-2.6h2.6
					c1.4,0,2.6,1.2,2.6,2.6v3.9c0,0.6-0.1,1.2-0.4,1.7l6.4,2.3c1,0.4,1.7,1.3,1.7,2.4S-180.5-1062.4-181.6-1062L-181.6-1062z
					 M-201.7-1078.3c-4.9,2.2-15.2,2.3-16.7,2.3s-11.8-0.1-16.7-2.3v11.2c0.8,1,6.8,2.7,16.7,2.7s15.9-1.7,16.7-2.7V-1078.3z
					 M-218.4-1083.7c-9.5,0-15.5,1.6-16.6,2.6c1.1,1,7.1,2.6,16.6,2.6s15.5-1.6,16.6-2.6C-202.9-1082.1-208.9-1083.7-218.4-1083.7z
					 M-194.7-1068.8l-4.5-1.6v3.4c0,5-17.3,5.1-19.3,5.1s-19.3-0.1-19.3-5.1v-3.4l-16.7,6l36,12.9l25.7-9.2v-6.5
					C-193.5-1067.5-194.2-1068.1-194.7-1068.8z M-190.1-1074.7h-2.6v3.9c0,0.7,0.6,1.3,1.3,1.3s1.3-0.6,1.3-1.3V-1074.7z
					 M-190.1-1067.2v5.5l7.7-2.8L-190.1-1067.2z"/>
				<path id="Shape_11_" class="st1" d="M-183.7-1088.9c-0.1,0-0.2,0-0.2,0c-11.4-1.8-22.9-2.6-34.5-2.6
					c-11.5-0.1-23.1,0.8-34.5,2.6c-0.1,0-0.2,0-0.2,0c-0.9,0-3.9-1-3.9-14.1s3-14.1,3.9-14.1c0.1,0,0.2,0,0.2,0
					c8.8,1.4,17.6,2.2,26.5,2.4l-2.5-6c-0.4-1-0.2-2.1,0.6-2.8c0.7-0.7,1.9-0.9,2.8-0.5l1,0.4l0.4-1c0.4-0.9,1.3-1.6,2.4-1.6h0
					c1,0,2,0.6,2.4,1.6l2.2,5.3l2.2-5.3c0.4-1,1.3-1.6,2.4-1.6h0c1,0,2,0.6,2.4,1.5l0.4,1l1-0.4c1-0.4,2.1-0.2,2.8,0.5
					s1,1.8,0.6,2.8l-2.5,5.9c8-0.3,16-1.1,23.9-2.3c0.1,0,0.1,0,0.2,0c0.9,0,3.9,1,3.9,14.1S-182.8-1088.9-183.7-1088.9z
					 M-214.3-1094c0.5-2,0.8-4,0.9-6c-2.9,1.4-6.3,1-8.9-0.8c-0.1,2.3-0.4,4.6-0.9,6.9c1.6,0,3.2,0,4.8,0
					C-217-1094-215.7-1094-214.3-1094z M-217.1-1114.6c-3.6,0-6.4,2.9-6.4,6.4s2.9,6.4,6.4,6.4s6.4-2.9,6.4-6.4
					C-210.7-1111.7-213.6-1114.6-217.1-1114.6z M-253.1-1092.1c1-3.6,1.4-7.2,1.3-10.9c0.1-3.7-0.3-7.4-1.3-10.9
					c-1,3.6-1.4,7.2-1.3,10.9C-254.6-1099.3-254.1-1095.6-253.1-1092.1z M-250.5-1114.1c0.7,2,1.3,5.5,1.3,11.1
					c0,5.7-0.6,9.1-1.3,11.1c8.2-1.1,16.4-1.8,24.6-2c0.8-3,1.1-6,1-9.1c0-0.2,0-0.4,0-0.5c-1.5-2.6-1.7-5.7-0.4-8.4l-0.1-0.1
					C-233.8-1112.3-242.2-1113-250.5-1114.1L-250.5-1114.1z M-221.8-1123.6l-0.9,2.2c-0.3,0.6-1,0.9-1.7,0.7l-2.2-1l3,7.2
					c1.2-1.3,2.8-2.1,4.5-2.5L-221.8-1123.6z M-209.9-1120.7c-0.7,0.3-1.4,0-1.7-0.7l-1-2.1l-2.8,6.6c1.7,0.4,3.3,1.2,4.5,2.5l3-7.2
					L-209.9-1120.7z M-184-1114.5c-8.3,1.3-16.6,2-24.9,2.3l-0.1,0.2c1.6,3.4,0.9,7.5-1.7,10.1c0,2.7-0.3,5.3-0.9,7.9
					c9.3,0.2,18.5,1,27.7,2.4c0.6-1,1.5-5,1.5-11.5C-182.4-1109.5-183.4-1113.5-184-1114.5z"/>
			</g>
		</g>
		<g>
			<g id="L1_8_10_" transform="matrix(1 0 0 1 257 149)">
				<path id="L1_7_10_" class="st1" d="M268.4-1062l-36,12.9c-0.6,0.2-1.2,0.2-1.8,0l-36-12.9c-1-0.4-1.7-1.3-1.7-2.4
					s0.7-2.1,1.7-2.4l17.6-6.3v-8c0-5,17.3-5.1,19.3-5.1s19.3,0.1,19.3,5.1v8l3.9,1.4v-3c0-1.4,1.2-2.6,2.6-2.6h2.6
					c1.4,0,2.6,1.2,2.6,2.6v3.9c0,0.6-0.1,1.2-0.4,1.7l6.4,2.3c1,0.4,1.7,1.3,1.7,2.4S269.5-1062.4,268.4-1062L268.4-1062z
					 M248.3-1078.3c-4.9,2.2-15.2,2.3-16.7,2.3c-1.5,0-11.8-0.1-16.7-2.3v11.2c0.8,1,6.8,2.7,16.7,2.7c9.9,0,15.9-1.7,16.7-2.7
					V-1078.3z M231.6-1083.7c-9.5,0-15.5,1.6-16.6,2.6c1.1,1,7.1,2.6,16.6,2.6s15.5-1.6,16.6-2.6
					C247.1-1082.1,241.1-1083.7,231.6-1083.7z M255.3-1068.8l-4.5-1.6v3.4c0,5-17.3,5.1-19.3,5.1s-19.3-0.1-19.3-5.1v-3.4l-16.7,6
					l36,12.9l25.7-9.2v-6.5C256.5-1067.5,255.8-1068.1,255.3-1068.8z M259.9-1074.7h-2.6v3.9c0,0.7,0.6,1.3,1.3,1.3s1.3-0.6,1.3-1.3
					V-1074.7z M259.9-1067.2v5.5l7.7-2.8L259.9-1067.2z"/>
				<path id="Shape_10_" class="st1" d="M266.3-1088.9c-0.1,0-0.2,0-0.2,0c-11.4-1.8-22.9-2.6-34.5-2.6c-11.5-0.1-23.1,0.8-34.5,2.6
					c-0.1,0-0.2,0-0.2,0c-0.9,0-3.9-1-3.9-14.1s3-14.1,3.9-14.1c0.1,0,0.2,0,0.2,0c8.8,1.4,17.6,2.2,26.5,2.4l-2.5-6
					c-0.4-1-0.2-2.1,0.6-2.8c0.7-0.7,1.9-0.9,2.8-0.5l1,0.4l0.4-1c0.4-0.9,1.3-1.6,2.4-1.6h0c1,0,2,0.6,2.4,1.6l2.2,5.3l2.2-5.3
					c0.4-1,1.3-1.6,2.4-1.6h0c1,0,2,0.6,2.4,1.5l0.4,1l1-0.4c1-0.4,2.1-0.2,2.8,0.5c0.7,0.7,1,1.8,0.6,2.8l-2.5,5.9
					c8-0.3,16-1.1,23.9-2.3c0.1,0,0.1,0,0.2,0c0.9,0,3.9,1,3.9,14.1S267.2-1088.9,266.3-1088.9z M235.7-1094c0.5-2,0.8-4,0.9-6
					c-2.9,1.4-6.3,1-8.9-0.8c-0.1,2.3-0.4,4.6-0.9,6.9c1.6,0,3.2,0,4.8,0C233-1094,234.3-1094,235.7-1094z M232.9-1114.6
					c-3.6,0-6.4,2.9-6.4,6.4s2.9,6.4,6.4,6.4s6.4-2.9,6.4-6.4C239.3-1111.7,236.4-1114.6,232.9-1114.6z M196.9-1092.1
					c1-3.6,1.4-7.2,1.3-10.9c0.1-3.7-0.3-7.4-1.3-10.9c-1,3.6-1.4,7.2-1.3,10.9C195.4-1099.3,195.9-1095.6,196.9-1092.1z
					 M199.5-1114.1c0.7,2,1.3,5.5,1.3,11.1c0,5.7-0.6,9.1-1.3,11.1c8.2-1.1,16.4-1.8,24.6-2c0.8-3,1.1-6,1-9.1c0-0.2,0-0.4,0-0.5
					c-1.5-2.6-1.7-5.7-0.4-8.4l-0.1-0.1C216.2-1112.3,207.8-1113,199.5-1114.1L199.5-1114.1z M228.2-1123.6l-0.9,2.2
					c-0.3,0.6-1,0.9-1.7,0.7l-2.2-1l3,7.2c1.2-1.3,2.8-2.1,4.5-2.5L228.2-1123.6z M240.1-1120.7c-0.7,0.3-1.4,0-1.7-0.7l-1-2.1
					l-2.8,6.6c1.7,0.4,3.3,1.2,4.5,2.5l3-7.2L240.1-1120.7z M266-1114.5c-8.3,1.3-16.6,2-24.9,2.3l-0.1,0.2
					c1.6,3.4,0.9,7.5-1.7,10.1c0,2.7-0.3,5.3-0.9,7.9c9.3,0.2,18.5,1,27.7,2.4c0.6-1,1.5-5,1.5-11.5
					C267.6-1109.5,266.6-1113.5,266-1114.5z"/>
			</g>
		</g>
		<g>
			<g id="L1_8_9_" transform="matrix(1 0 0 1 257 149)">
				<path id="L1_7_9_" class="st1" d="M718.4-1062l-36,12.9c-0.6,0.2-1.2,0.2-1.8,0l-36-12.9c-1-0.4-1.7-1.3-1.7-2.4
					s0.7-2.1,1.7-2.4l17.6-6.3v-8c0-5,17.3-5.1,19.3-5.1s19.3,0.1,19.3,5.1v8l3.9,1.4v-3c0-1.4,1.2-2.6,2.6-2.6h2.6
					c1.4,0,2.6,1.2,2.6,2.6v3.9c0,0.6-0.1,1.2-0.4,1.7l6.4,2.3c1,0.4,1.7,1.3,1.7,2.4S719.5-1062.4,718.4-1062L718.4-1062z
					 M698.3-1078.3c-4.9,2.2-15.2,2.3-16.7,2.3s-11.8-0.1-16.7-2.3v11.2c0.8,1,6.8,2.7,16.7,2.7c9.9,0,15.9-1.7,16.7-2.7V-1078.3z
					 M681.6-1083.7c-9.5,0-15.5,1.6-16.6,2.6c1.1,1,7.1,2.6,16.6,2.6s15.5-1.6,16.6-2.6C697.1-1082.1,691.1-1083.7,681.6-1083.7z
					 M705.3-1068.8l-4.5-1.6v3.4c0,5-17.3,5.1-19.3,5.1s-19.3-0.1-19.3-5.1v-3.4l-16.7,6l36,12.9l25.7-9.2v-6.5
					C706.5-1067.5,705.8-1068.1,705.3-1068.8z M709.9-1074.7h-2.6v3.9c0,0.7,0.6,1.3,1.3,1.3s1.3-0.6,1.3-1.3V-1074.7z
					 M709.9-1067.2v5.5l7.7-2.8L709.9-1067.2z"/>
				<path id="Shape_9_" class="st1" d="M716.3-1088.9c-0.1,0-0.2,0-0.2,0c-11.4-1.8-22.9-2.6-34.5-2.6c-11.5-0.1-23.1,0.8-34.5,2.6
					c-0.1,0-0.2,0-0.2,0c-0.9,0-3.9-1-3.9-14.1s3-14.1,3.9-14.1c0.1,0,0.2,0,0.2,0c8.8,1.4,17.6,2.2,26.5,2.4l-2.5-6
					c-0.4-1-0.2-2.1,0.6-2.8c0.7-0.7,1.9-0.9,2.8-0.5l1,0.4l0.4-1c0.4-0.9,1.3-1.6,2.4-1.6h0c1,0,2,0.6,2.4,1.6l2.2,5.3l2.2-5.3
					c0.4-1,1.3-1.6,2.4-1.6h0c1,0,2,0.6,2.4,1.5l0.4,1l1-0.4c1-0.4,2.1-0.2,2.8,0.5s1,1.8,0.6,2.8l-2.5,5.9c8-0.3,16-1.1,23.9-2.3
					c0.1,0,0.1,0,0.2,0c0.9,0,3.9,1,3.9,14.1S717.2-1088.9,716.3-1088.9z M685.7-1094c0.5-2,0.8-4,0.9-6c-2.9,1.4-6.3,1-8.9-0.8
					c-0.1,2.3-0.4,4.6-0.9,6.9c1.6,0,3.2,0,4.8,0C683-1094,684.3-1094,685.7-1094z M682.9-1114.6c-3.6,0-6.4,2.9-6.4,6.4
					s2.9,6.4,6.4,6.4s6.4-2.9,6.4-6.4C689.3-1111.7,686.4-1114.6,682.9-1114.6z M646.9-1092.1c1-3.6,1.4-7.2,1.3-10.9
					c0.1-3.7-0.3-7.4-1.3-10.9c-1,3.6-1.4,7.2-1.3,10.9C645.4-1099.3,645.9-1095.6,646.9-1092.1z M649.5-1114.1
					c0.7,2,1.3,5.5,1.3,11.1c0,5.7-0.6,9.1-1.3,11.1c8.2-1.1,16.4-1.8,24.6-2c0.8-3,1.1-6,1-9.1c0-0.2,0-0.4,0-0.5
					c-1.5-2.6-1.7-5.7-0.4-8.4l-0.1-0.1C666.2-1112.3,657.8-1113,649.5-1114.1L649.5-1114.1z M678.2-1123.6l-0.9,2.2
					c-0.3,0.6-1,0.9-1.7,0.7l-2.2-1l3,7.2c1.2-1.3,2.8-2.1,4.5-2.5L678.2-1123.6z M690.1-1120.7c-0.7,0.3-1.4,0-1.7-0.7l-1-2.1
					l-2.8,6.6c1.7,0.4,3.3,1.2,4.5,2.5l3-7.2L690.1-1120.7z M716-1114.5c-8.3,1.3-16.6,2-24.9,2.3l-0.1,0.2
					c1.6,3.4,0.9,7.5-1.7,10.1c0,2.7-0.3,5.3-0.9,7.9c9.3,0.2,18.5,1,27.7,2.4c0.6-1,1.5-5,1.5-11.5
					C717.6-1109.5,716.6-1113.5,716-1114.5z"/>
			</g>
		</g>
	</g>
</pattern>
<pattern  y="1080" width="450" height="450" patternUnits="userSpaceOnUse" id="pattern_L1_9" viewBox="371.6 -822.9 450 450" style="overflow:visible;">
	<g>
		<rect x="371.6" y="-822.9" class="st0" width="450" height="450"/>
		<g>
			<g id="L1_9_17_" transform="matrix(0.11717651784420013 0 0 0.11717651784420013 61 60)">
				<path d="M-13.2-691.8c-2.8,4.5-8.7,5.9-13.3,3.1c-4.5-2.8-5.9-8.7-3.1-13.3c16.7-27.1,26.2-57.9,27.9-89.7h-48.1
					c-4.5,18.9-21.6,33.1-41.8,33.1c-20.2,0-37.3-14.1-41.8-33.1h-48.4v56.7c0,5.3-4.3,9.6-9.6,9.6c-13,0-23.6,10.6-23.6,23.6
					c0,13,10.6,23.6,23.6,23.6c5.3,0,9.6,4.3,9.6,9.6v56.7c48.6-2.4,93.6-22.9,127.6-58.3c4.5-3.9,9.1-4,13.6-0.3
					c3.8,3.7,4,9.8,0.3,13.6c-39.8,41.6-93.5,64.5-151,64.5c0,0-0.1,0-0.1,0c0,0-0.1,0-0.1,0c-50.9,0-99.8-18.4-137.9-51.7
					c-4-3.5-4.4-9.6-0.9-13.6c3.5-4,9.6-4.4,13.6-0.9c32.2,28.2,72.9,44.6,115.7,46.7v-48.1c-19-4.4-33.3-21.5-33.3-41.8
					c0-20.4,14.2-37.4,33.3-41.8v-48.1h-56.9c-5.3,0-9.6-4.3-9.6-9.6v-0.2c0-13-10.6-23.6-23.6-23.6c-13,0-23.6,10.6-23.6,23.6v0.2
					c0,5.3-4.3,9.6-9.6,9.6h-56.7c1.9,37.8,14.7,73.5,37.3,103.8c3.2,4.3,2.3,10.3-2,13.5c-4.3,3.2-10.3,2.3-13.5-2
					c-27-36.2-41.3-79.4-41.4-125c-1.9-79.5,48.8-155.8,119.8-189.5c8.1-3.8,13.3-12.1,13.3-21.2v-19.2c-19.8,0-33.3-10.6-33.3-29.6
					c0-19,13.1-29.6,33.3-29.6v-43.9c0-19.1,17.1-36.1,36.1-36.1h80.2c19,0,36.1,17,36.1,36.1v43.9c22.6,0,33.3,12,33.3,29.6
					c0,18.4-11.6,29.6-33.3,29.6v19.2c0,9.1,5.2,17.4,13.4,21.2c73,34.6,118.5,109.2,119.7,189.5C17.8-762.5,7.1-724.6-13.2-691.8
					L-13.2-691.8z M-272.7-973.3c-63.2,30-105,93-108.5,162.4h48c4.3-19.2,21.4-33.5,41.9-33.5c20.4,0,37.6,14.4,41.9,33.5h48.3
					V-868c0-5.3,4.3-9.6,9.6-9.6c13,0,23.6-10.6,23.6-23.6s-10.6-23.6-23.6-23.6c-5.3,0-9.6-4.3-9.6-9.6v-96.6h-47.3v19.2
					C-248.4-995.5-258-980.3-272.7-973.3z M-151.4-1151.1h-80.2c-12.3,0-17.4,10.9-16.8,20.6h113.8
					C-134.6-1140.8-137.8-1151.1-151.4-1151.1z M-111.6-1071.1h-59.6c-5.3,0-9.6-4.3-9.6-9.6c0,0,0,0,0-0.1s0,0,0-0.1
					c0-5.3,4.3-9.6,9.6-9.6h36.7v-20.7h-113.8v20.7h35.2c5.3,0,9.6,4.3,9.6,9.6c0,0,0,0,0,0.1s0,0,0,0.1c0,5.3-4.3,9.6-9.6,9.6
					h-58.1c-15.3-0.2-15.7,20.6,0,20.6h159.7C-98.3-1050.4-96.4-1071.1-111.6-1071.1z M-110.2-973.3c-14.8-7-24.4-22.2-24.4-38.7
					v-19.2h-47.3v88c19,4.4,33.3,21.5,33.3,41.8s-14.2,37.4-33.3,41.8v48.6h56.9c5.3,0,9.6,4.3,9.6,9.6
					c0.1,12.9,10.7,23.5,23.6,23.5c12.9,0,23.6-10.5,23.6-23.5c0-5.3,4.3-9.6,9.6-9.6h56.6C-5.2-880.3-47-943.3-110.2-973.3z"/>
				<g>
					<path d="M-191.5-571.3c-5.3,0-9.6,4.3-9.6,9.6v39.9c0,5.3,4.3,9.6,9.6,9.6s9.6-4.3,9.6-9.6v-39.9
						C-181.9-567-186.2-571.3-191.5-571.3z"/>
					<path d="M-56.6-607.4c-4.6,2.6-6.2,8.6-3.5,13.2l20,34.6c2.7,4.6,8.6,6.2,13.2,3.5c4.6-2.7,6.2-8.6,3.5-13.2l-20-34.6
						C-45.2-607-51.4-610.4-56.6-607.4z"/>
					<g>
						<path d="M42.2-706.2c-2.7,4.6-1.1,10.5,3.5,13.2l34.6,20c4.6,2.7,10.5,1.1,13.2-3.5c2.7-4.6,1.1-10.5-3.5-13.2l-34.6-20
							C49.9-712.9,44-709.3,42.2-706.2z"/>
						<path d="M-476.5-1005.7c-2.5,4.7-1.1,10.5,3.5,13.2l34.6,20c4.6,2.7,10.5,1.1,13.2-3.5c2.7-4.6,1.1-10.5-3.5-13.2l-34.6-20
							C-468.9-1012.2-474-1010.3-476.5-1005.7z"/>
					</g>
					<path d="M-339.6-603.9l-20,34.6c-2.7,4.6-1.1,10.5,3.5,13.2c4.6,2.7,10.5,1.1,13.2-3.5l20-34.6c2.7-4.6,1-10.3-3.5-13.2
						C-331.6-610.7-337.8-607-339.6-603.9z"/>
					<g>
						<path d="M-438.4-709.7l-34.6,20c-4.6,2.7-6.2,8.6-3.5,13.2c2.7,4.6,8.6,6.2,13.2,3.5l34.6-20c4.6-2.7,6.9-9,3.5-13.2
							C-429.4-711.3-433.5-712-438.4-709.7z"/>
						<path d="M80.3-1009.2l-34.6,20c-4.6,2.7-6.2,8.6-3.5,13.2c2.7,4.6,8.6,6.2,13.2,3.5l34.6-20c4.6-2.7,6.4-8.7,3.5-13.2
							C90.4-1010.5,85.9-1012.5,80.3-1009.2z"/>
					</g>
					<g>
						<path d="M-471-850.8h-39.9c-5.3,0-9.6,4.3-9.6,9.6c0,5.3,4.3,9.6,9.6,9.6h39.9c5.3,0,9.6-4.3,9.6-9.6
							C-461.4-846.4-465.7-850.8-471-850.8z"/>
						<path d="M127.9-850.8H88c-5.3,0-9.6,4.3-9.6,9.6c0,5.3,4.3,9.6,9.6,9.6h39.9c5.3,0,9.6-4.3,9.6-9.6
							C137.6-846.4,133.3-850.8,127.9-850.8z"/>
					</g>
				</g>
			</g>
		</g>
		<g>
			<g id="L1_9_16_" transform="matrix(0.11717651784420013 0 0 0.11717651784420013 61 60)">
				<path d="M3827.2-691.8c-2.8,4.5-8.7,5.9-13.3,3.1c-4.5-2.8-5.9-8.7-3.1-13.3c16.7-27.1,26.2-57.9,27.9-89.7h-48.1
					c-4.5,18.9-21.6,33.1-41.8,33.1c-20.2,0-37.3-14.1-41.8-33.1h-48.4v56.7c0,5.3-4.3,9.6-9.6,9.6c-13,0-23.6,10.6-23.6,23.6
					c0,13,10.6,23.6,23.6,23.6c5.3,0,9.6,4.3,9.6,9.6v56.7c48.6-2.4,93.6-22.9,127.6-58.3c4.5-3.9,9.1-4,13.6-0.3
					c3.8,3.7,4,9.8,0.3,13.6c-39.8,41.6-93.5,64.5-151,64.5c0,0-0.1,0-0.1,0c0,0-0.1,0-0.1,0c-50.9,0-99.8-18.4-137.9-51.7
					c-4-3.5-4.4-9.6-0.9-13.6c3.5-4,9.6-4.4,13.6-0.9c32.2,28.2,72.9,44.6,115.7,46.7v-48.1c-19-4.4-33.3-21.5-33.3-41.8
					c0-20.4,14.2-37.4,33.3-41.8v-48.1h-56.9c-5.3,0-9.6-4.3-9.6-9.6v-0.2c0-13-10.6-23.6-23.6-23.6c-13,0-23.6,10.6-23.6,23.6v0.2
					c0,5.3-4.3,9.6-9.6,9.6h-56.7c1.9,37.8,14.7,73.5,37.3,103.8c3.2,4.3,2.3,10.3-2,13.5c-4.3,3.2-10.3,2.3-13.5-2
					c-27-36.2-41.3-79.4-41.4-125c-1.9-79.5,48.8-155.8,119.8-189.5c8.1-3.8,13.3-12.1,13.3-21.2v-19.2c-19.8,0-33.3-10.6-33.3-29.6
					c0-19,13.1-29.6,33.3-29.6v-43.9c0-19.1,17.1-36.1,36.1-36.1h80.2c19,0,36.1,17,36.1,36.1v43.9c22.6,0,33.3,12,33.3,29.6
					c0,18.4-11.6,29.6-33.3,29.6v19.2c0,9.1,5.2,17.4,13.4,21.2c73,34.6,118.5,109.2,119.7,189.5
					C3858.1-762.5,3847.4-724.6,3827.2-691.8L3827.2-691.8z M3567.6-973.3c-63.2,30-105,93-108.5,162.4h48
					c4.3-19.2,21.4-33.5,41.9-33.5c20.4,0,37.6,14.4,41.9,33.5h48.3V-868c0-5.3,4.3-9.6,9.6-9.6c13,0,23.6-10.6,23.6-23.6
					s-10.6-23.6-23.6-23.6c-5.3,0-9.6-4.3-9.6-9.6v-96.6h-47.3v19.2C3591.9-995.5,3582.4-980.3,3567.6-973.3z M3688.9-1151.1h-80.2
					c-12.3,0-17.4,10.9-16.8,20.6h113.8C3705.8-1140.8,3702.5-1151.1,3688.9-1151.1z M3728.7-1071.1h-59.6c-5.3,0-9.6-4.3-9.6-9.6
					c0,0,0,0,0-0.1s0,0,0-0.1c0-5.3,4.3-9.6,9.6-9.6h36.7v-20.7h-113.8v20.7h35.2c5.3,0,9.6,4.3,9.6,9.6c0,0,0,0,0,0.1s0,0,0,0.1
					c0,5.3-4.3,9.6-9.6,9.6H3569c-15.3-0.2-15.7,20.6,0,20.6h159.7C3742.1-1050.4,3744-1071.1,3728.7-1071.1z M3730.2-973.3
					c-14.8-7-24.4-22.2-24.4-38.7v-19.2h-47.3v88c19,4.4,33.3,21.5,33.3,41.8s-14.2,37.4-33.3,41.8v48.6h56.9c5.3,0,9.6,4.3,9.6,9.6
					c0.1,12.9,10.7,23.5,23.6,23.5c12.9,0,23.6-10.5,23.6-23.5c0-5.3,4.3-9.6,9.6-9.6h56.6C3835.1-880.3,3793.3-943.3,3730.2-973.3z
					"/>
				<g>
					<path d="M3648.8-571.3c-5.3,0-9.6,4.3-9.6,9.6v39.9c0,5.3,4.3,9.6,9.6,9.6s9.6-4.3,9.6-9.6v-39.9
						C3658.5-567,3654.2-571.3,3648.8-571.3z"/>
					<path d="M3783.8-607.4c-4.6,2.6-6.2,8.6-3.5,13.2l20,34.6c2.7,4.6,8.6,6.2,13.2,3.5c4.6-2.7,6.2-8.6,3.5-13.2l-20-34.6
						C3795.1-607,3789-610.4,3783.8-607.4z"/>
					<g>
						<path d="M3882.5-706.2c-2.7,4.6-1.1,10.5,3.5,13.2l34.6,20c4.6,2.7,10.5,1.1,13.2-3.5c2.7-4.6,1.1-10.5-3.5-13.2l-34.6-20
							C3890.2-712.9,3884.3-709.3,3882.5-706.2z"/>
						<path d="M3363.9-1005.7c-2.5,4.7-1.1,10.5,3.5,13.2l34.6,20c4.6,2.7,10.5,1.1,13.2-3.5c2.7-4.6,1.1-10.5-3.5-13.2l-34.6-20
							C3371.4-1012.2,3366.3-1010.3,3363.9-1005.7z"/>
					</g>
					<path d="M3500.7-603.9l-20,34.6c-2.7,4.6-1.1,10.5,3.5,13.2c4.6,2.7,10.5,1.1,13.2-3.5l20-34.6c2.7-4.6,1-10.3-3.5-13.2
						C3508.7-610.7,3502.5-607,3500.7-603.9z"/>
					<g>
						<path d="M3402-709.7l-34.6,20c-4.6,2.7-6.2,8.6-3.5,13.2c2.7,4.6,8.6,6.2,13.2,3.5l34.6-20c4.6-2.7,6.9-9,3.5-13.2
							C3411-711.3,3406.8-712,3402-709.7z"/>
						<path d="M3920.7-1009.2l-34.6,20c-4.6,2.7-6.2,8.6-3.5,13.2c2.7,4.6,8.6,6.2,13.2,3.5l34.6-20c4.6-2.7,6.4-8.7,3.5-13.2
							C3930.7-1010.5,3926.2-1012.5,3920.7-1009.2z"/>
					</g>
					<g>
						<path d="M3369.3-850.8h-39.9c-5.3,0-9.6,4.3-9.6,9.6c0,5.3,4.3,9.6,9.6,9.6h39.9c5.3,0,9.6-4.3,9.6-9.6
							C3379-846.4,3374.7-850.8,3369.3-850.8z"/>
						<path d="M3968.3-850.8h-39.9c-5.3,0-9.6,4.3-9.6,9.6c0,5.3,4.3,9.6,9.6,9.6h39.9c5.3,0,9.6-4.3,9.6-9.6
							C3977.9-846.4,3973.6-850.8,3968.3-850.8z"/>
					</g>
				</g>
			</g>
		</g>
		<g>
			<g id="L1_9_15_" transform="matrix(0.11717651784420013 0 0 0.11717651784420013 61 60)">
				<path d="M7667.5-691.8c-2.8,4.5-8.7,5.9-13.3,3.1c-4.5-2.8-5.9-8.7-3.1-13.3c16.7-27.1,26.2-57.9,27.9-89.7h-48.1
					c-4.5,18.9-21.6,33.1-41.8,33.1c-20.2,0-37.3-14.1-41.8-33.1h-48.4v56.7c0,5.3-4.3,9.6-9.6,9.6c-13,0-23.6,10.6-23.6,23.6
					c0,13,10.6,23.6,23.6,23.6c5.3,0,9.6,4.3,9.6,9.6v56.7c48.6-2.4,93.6-22.9,127.6-58.3c4.5-3.9,9.1-4,13.6-0.3
					c3.8,3.7,4,9.8,0.3,13.6c-39.8,41.6-93.5,64.5-151,64.5c0,0-0.1,0-0.1,0c0,0-0.1,0-0.1,0c-50.9,0-99.8-18.4-137.9-51.7
					c-4-3.5-4.4-9.6-0.9-13.6c3.5-4,9.6-4.4,13.6-0.9c32.2,28.2,72.9,44.6,115.7,46.7v-48.1c-19-4.4-33.3-21.5-33.3-41.8
					c0-20.4,14.2-37.4,33.3-41.8v-48.1h-56.9c-5.3,0-9.6-4.3-9.6-9.6v-0.2c0-13-10.6-23.6-23.6-23.6c-13,0-23.6,10.6-23.6,23.6v0.2
					c0,5.3-4.3,9.6-9.6,9.6h-56.7c1.9,37.8,14.7,73.5,37.3,103.8c3.2,4.3,2.3,10.3-2,13.5c-4.3,3.2-10.3,2.3-13.5-2
					c-27-36.2-41.3-79.4-41.4-125c-1.9-79.5,48.8-155.8,119.8-189.5c8.1-3.8,13.3-12.1,13.3-21.2v-19.2c-19.8,0-33.3-10.6-33.3-29.6
					c0-19,13.1-29.6,33.3-29.6v-43.9c0-19.1,17.1-36.1,36.1-36.1h80.2c19,0,36.1,17,36.1,36.1v43.9c22.6,0,33.3,12,33.3,29.6
					c0,18.4-11.6,29.6-33.3,29.6v19.2c0,9.1,5.2,17.4,13.4,21.2c73,34.6,118.5,109.2,119.7,189.5
					C7698.5-762.5,7687.7-724.6,7667.5-691.8L7667.5-691.8z M7407.9-973.3c-63.2,30-105,93-108.5,162.4h48
					c4.3-19.2,21.4-33.5,41.9-33.5c20.4,0,37.6,14.4,41.9,33.5h48.3V-868c0-5.3,4.3-9.6,9.6-9.6c13,0,23.6-10.6,23.6-23.6
					s-10.6-23.6-23.6-23.6c-5.3,0-9.6-4.3-9.6-9.6v-96.6h-47.3v19.2C7432.3-995.5,7422.7-980.3,7407.9-973.3z M7529.3-1151.1h-80.2
					c-12.3,0-17.4,10.9-16.8,20.6h113.8C7546.1-1140.8,7542.9-1151.1,7529.3-1151.1z M7569-1071.1h-59.6c-5.3,0-9.6-4.3-9.6-9.6
					c0,0,0,0,0-0.1s0,0,0-0.1c0-5.3,4.3-9.6,9.6-9.6h36.7v-20.7h-113.8v20.7h35.2c5.3,0,9.6,4.3,9.6,9.6c0,0,0,0,0,0.1s0,0,0,0.1
					c0,5.3-4.3,9.6-9.6,9.6h-58.1c-15.3-0.2-15.7,20.6,0,20.6h159.7C7582.4-1050.4,7584.3-1071.1,7569-1071.1z M7570.5-973.3
					c-14.8-7-24.4-22.2-24.4-38.7v-19.2h-47.3v88c19,4.4,33.3,21.5,33.3,41.8s-14.2,37.4-33.3,41.8v48.6h56.9c5.3,0,9.6,4.3,9.6,9.6
					c0.1,12.9,10.7,23.5,23.6,23.5c12.9,0,23.6-10.5,23.6-23.5c0-5.3,4.3-9.6,9.6-9.6h56.6C7675.5-880.3,7633.7-943.3,7570.5-973.3z
					"/>
				<g>
					<path d="M7489.2-571.3c-5.3,0-9.6,4.3-9.6,9.6v39.9c0,5.3,4.3,9.6,9.6,9.6s9.6-4.3,9.6-9.6v-39.9
						C7498.8-567,7494.5-571.3,7489.2-571.3z"/>
					<path d="M7624.1-607.4c-4.6,2.6-6.2,8.6-3.5,13.2l20,34.6c2.7,4.6,8.6,6.2,13.2,3.5c4.6-2.7,6.2-8.6,3.5-13.2l-20-34.6
						C7635.5-607,7629.3-610.4,7624.1-607.4z"/>
					<g>
						<path d="M7722.9-706.2c-2.7,4.6-1.1,10.5,3.5,13.2l34.6,20c4.6,2.7,10.5,1.1,13.2-3.5c2.7-4.6,1.1-10.5-3.5-13.2l-34.6-20
							C7730.6-712.9,7724.7-709.3,7722.9-706.2z"/>
						<path d="M7204.2-1005.7c-2.5,4.7-1.1,10.5,3.5,13.2l34.6,20c4.6,2.7,10.5,1.1,13.2-3.5c2.7-4.6,1.1-10.5-3.5-13.2l-34.6-20
							C7211.8-1012.2,7206.6-1010.3,7204.2-1005.7z"/>
					</g>
					<path d="M7341.1-603.9l-20,34.6c-2.7,4.6-1.1,10.5,3.5,13.2c4.6,2.7,10.5,1.1,13.2-3.5l20-34.6c2.7-4.6,1-10.3-3.5-13.2
						C7349-610.7,7342.9-607,7341.1-603.9z"/>
					<g>
						<path d="M7242.3-709.7l-34.6,20c-4.6,2.7-6.2,8.6-3.5,13.2c2.7,4.6,8.6,6.2,13.2,3.5l34.6-20c4.6-2.7,6.9-9,3.5-13.2
							C7251.3-711.3,7247.1-712,7242.3-709.7z"/>
						<path d="M7761-1009.2l-34.6,20c-4.6,2.7-6.2,8.6-3.5,13.2c2.7,4.6,8.6,6.2,13.2,3.5l34.6-20c4.6-2.7,6.4-8.7,3.5-13.2
							C7771.1-1010.5,7766.6-1012.5,7761-1009.2z"/>
					</g>
					<g>
						<path d="M7209.7-850.8h-39.9c-5.3,0-9.6,4.3-9.6,9.6c0,5.3,4.3,9.6,9.6,9.6h39.9c5.3,0,9.6-4.3,9.6-9.6
							C7219.3-846.4,7215-850.8,7209.7-850.8z"/>
						<path d="M7808.6-850.8h-39.9c-5.3,0-9.6,4.3-9.6,9.6c0,5.3,4.3,9.6,9.6,9.6h39.9c5.3,0,9.6-4.3,9.6-9.6
							C7818.3-846.4,7813.9-850.8,7808.6-850.8z"/>
					</g>
				</g>
			</g>
		</g>
		<g>
			<g id="L1_9_14_" transform="matrix(0.11717651784420013 0 0 0.11717651784420013 61 60)">
				<path d="M-13.2-4532.1c-2.8,4.5-8.7,5.9-13.3,3.1c-4.5-2.8-5.9-8.7-3.1-13.3c16.7-27.1,26.2-57.9,27.9-89.7h-48.1
					c-4.5,18.9-21.6,33.1-41.8,33.1c-20.2,0-37.3-14.1-41.8-33.1h-48.4v56.7c0,5.3-4.3,9.6-9.6,9.6c-13,0-23.6,10.6-23.6,23.6
					c0,13,10.6,23.6,23.6,23.6c5.3,0,9.6,4.3,9.6,9.6v56.7c48.6-2.4,93.6-22.9,127.6-58.3c4.5-3.9,9.1-4,13.6-0.3
					c3.8,3.7,4,9.8,0.3,13.6c-39.8,41.6-93.5,64.5-151,64.5c0,0-0.1,0-0.1,0c0,0-0.1,0-0.1,0c-50.9,0-99.8-18.4-137.9-51.7
					c-4-3.5-4.4-9.6-0.9-13.6c3.5-4,9.6-4.4,13.6-0.9c32.2,28.2,72.9,44.6,115.7,46.7v-48.1c-19-4.4-33.3-21.5-33.3-41.8
					s14.2-37.4,33.3-41.8v-48.1h-56.9c-5.3,0-9.6-4.3-9.6-9.6v-0.2c0-13-10.6-23.6-23.6-23.6c-13,0-23.6,10.6-23.6,23.6v0.2
					c0,5.3-4.3,9.6-9.6,9.6h-56.7c1.9,37.8,14.7,73.5,37.3,103.8c3.2,4.3,2.3,10.3-2,13.5c-4.3,3.2-10.3,2.3-13.5-2
					c-27-36.2-41.3-79.4-41.4-125c-1.9-79.5,48.8-155.8,119.8-189.5c8.1-3.8,13.3-12.1,13.3-21.2v-19.2c-19.8,0-33.3-10.6-33.3-29.6
					c0-19,13.1-29.6,33.3-29.6v-43.9c0-19.1,17.1-36.1,36.1-36.1h80.2c19,0,36.1,17,36.1,36.1v43.9c22.6,0,33.3,12,33.3,29.6
					c0,18.4-11.6,29.6-33.3,29.6v19.2c0,9.1,5.2,17.4,13.4,21.2c73,34.6,118.5,109.2,119.7,189.5C17.8-4602.8,7.1-4565-13.2-4532.1
					L-13.2-4532.1z M-272.7-4813.7c-63.2,30-105,93-108.5,162.4h48c4.3-19.2,21.4-33.5,41.9-33.5c20.4,0,37.6,14.4,41.9,33.5h48.3
					v-57.1c0-5.3,4.3-9.6,9.6-9.6c13,0,23.6-10.6,23.6-23.6s-10.6-23.6-23.6-23.6c-5.3,0-9.6-4.3-9.6-9.6v-96.6h-47.3v19.2
					C-248.4-4835.8-258-4820.7-272.7-4813.7z M-151.4-4991.4h-80.2c-12.3,0-17.4,10.9-16.8,20.6h113.8
					C-134.6-4981.2-137.8-4991.4-151.4-4991.4z M-111.6-4911.4h-59.6c-5.3,0-9.6-4.3-9.6-9.6c0,0,0,0,0-0.1s0,0,0-0.1
					c0-5.3,4.3-9.6,9.6-9.6h36.7v-20.7h-113.8v20.7h35.2c5.3,0,9.6,4.3,9.6,9.6c0,0,0,0,0,0.1s0,0,0,0.1c0,5.3-4.3,9.6-9.6,9.6
					h-58.1c-15.3-0.2-15.7,20.6,0,20.6h159.7C-98.3-4890.8-96.4-4911.5-111.6-4911.4z M-110.2-4813.6c-14.8-7-24.4-22.2-24.4-38.7
					v-19.2h-47.3v88c19,4.4,33.3,21.5,33.3,41.8s-14.2,37.4-33.3,41.8v48.6h56.9c5.3,0,9.6,4.3,9.6,9.6
					c0.1,12.9,10.7,23.5,23.6,23.5c12.9,0,23.6-10.5,23.6-23.5c0-5.3,4.3-9.6,9.6-9.6h56.6C-5.2-4720.6-47-4783.6-110.2-4813.6z"/>
				<g>
					<path d="M-191.5-4411.6c-5.3,0-9.6,4.3-9.6,9.6v39.9c0,5.3,4.3,9.6,9.6,9.6s9.6-4.3,9.6-9.6v-39.9
						C-181.9-4407.3-186.2-4411.6-191.5-4411.6z"/>
					<path d="M-56.6-4447.8c-4.6,2.6-6.2,8.6-3.5,13.2l20,34.6c2.7,4.6,8.6,6.2,13.2,3.5c4.6-2.7,6.2-8.6,3.5-13.2l-20-34.6
						C-45.2-4447.3-51.4-4450.7-56.6-4447.8z"/>
					<g>
						<path d="M42.2-4546.5c-2.7,4.6-1.1,10.5,3.5,13.2l34.6,20c4.6,2.7,10.5,1.1,13.2-3.5c2.7-4.6,1.1-10.5-3.5-13.2l-34.6-20
							C49.9-4553.3,44-4549.6,42.2-4546.5z"/>
						<path d="M-476.5-4846c-2.5,4.7-1.1,10.5,3.5,13.2l34.6,20c4.6,2.7,10.5,1.1,13.2-3.5c2.7-4.6,1.1-10.5-3.5-13.2l-34.6-20
							C-468.9-4852.5-474-4850.7-476.5-4846z"/>
					</g>
					<path d="M-339.6-4444.2l-20,34.6c-2.7,4.6-1.1,10.5,3.5,13.2c4.6,2.7,10.5,1.1,13.2-3.5l20-34.6c2.7-4.6,1-10.3-3.5-13.2
						C-331.6-4451.1-337.8-4447.3-339.6-4444.2z"/>
					<g>
						<path d="M-438.4-4550.1l-34.6,20c-4.6,2.7-6.2,8.6-3.5,13.2c2.7,4.6,8.6,6.2,13.2,3.5l34.6-20c4.6-2.7,6.9-9,3.5-13.2
							C-429.4-4551.7-433.5-4552.3-438.4-4550.1z"/>
						<path d="M80.3-4849.5l-34.6,20c-4.6,2.7-6.2,8.6-3.5,13.2c2.7,4.6,8.6,6.2,13.2,3.5l34.6-20c4.6-2.7,6.4-8.7,3.5-13.2
							C90.4-4850.8,85.9-4852.8,80.3-4849.5z"/>
					</g>
					<g>
						<path d="M-471-4691.1h-39.9c-5.3,0-9.6,4.3-9.6,9.6c0,5.3,4.3,9.6,9.6,9.6h39.9c5.3,0,9.6-4.3,9.6-9.6
							C-461.4-4686.8-465.7-4691.1-471-4691.1z"/>
						<path d="M127.9-4691.1H88c-5.3,0-9.6,4.3-9.6,9.6c0,5.3,4.3,9.6,9.6,9.6h39.9c5.3,0,9.6-4.3,9.6-9.6
							C137.6-4686.8,133.3-4691.1,127.9-4691.1z"/>
					</g>
				</g>
			</g>
		</g>
		<g>
			<g id="L1_9_13_" transform="matrix(0.11717651784420013 0 0 0.11717651784420013 61 60)">
				<path d="M3827.2-4532.1c-2.8,4.5-8.7,5.9-13.3,3.1c-4.5-2.8-5.9-8.7-3.1-13.3c16.7-27.1,26.2-57.9,27.9-89.7h-48.1
					c-4.5,18.9-21.6,33.1-41.8,33.1c-20.2,0-37.3-14.1-41.8-33.1h-48.4v56.7c0,5.3-4.3,9.6-9.6,9.6c-13,0-23.6,10.6-23.6,23.6
					c0,13,10.6,23.6,23.6,23.6c5.3,0,9.6,4.3,9.6,9.6v56.7c48.6-2.4,93.6-22.9,127.6-58.3c4.5-3.9,9.1-4,13.6-0.3
					c3.8,3.7,4,9.8,0.3,13.6c-39.8,41.6-93.5,64.5-151,64.5c0,0-0.1,0-0.1,0c0,0-0.1,0-0.1,0c-50.9,0-99.8-18.4-137.9-51.7
					c-4-3.5-4.4-9.6-0.9-13.6c3.5-4,9.6-4.4,13.6-0.9c32.2,28.2,72.9,44.6,115.7,46.7v-48.1c-19-4.4-33.3-21.5-33.3-41.8
					s14.2-37.4,33.3-41.8v-48.1h-56.9c-5.3,0-9.6-4.3-9.6-9.6v-0.2c0-13-10.6-23.6-23.6-23.6c-13,0-23.6,10.6-23.6,23.6v0.2
					c0,5.3-4.3,9.6-9.6,9.6h-56.7c1.9,37.8,14.7,73.5,37.3,103.8c3.2,4.3,2.3,10.3-2,13.5c-4.3,3.2-10.3,2.3-13.5-2
					c-27-36.2-41.3-79.4-41.4-125c-1.9-79.5,48.8-155.8,119.8-189.5c8.1-3.8,13.3-12.1,13.3-21.2v-19.2c-19.8,0-33.3-10.6-33.3-29.6
					c0-19,13.1-29.6,33.3-29.6v-43.9c0-19.1,17.1-36.1,36.1-36.1h80.2c19,0,36.1,17,36.1,36.1v43.9c22.6,0,33.3,12,33.3,29.6
					c0,18.4-11.6,29.6-33.3,29.6v19.2c0,9.1,5.2,17.4,13.4,21.2c73,34.6,118.5,109.2,119.7,189.5
					C3858.1-4602.8,3847.4-4565,3827.2-4532.1L3827.2-4532.1z M3567.6-4813.7c-63.2,30-105,93-108.5,162.4h48
					c4.3-19.2,21.4-33.5,41.9-33.5c20.4,0,37.6,14.4,41.9,33.5h48.3v-57.1c0-5.3,4.3-9.6,9.6-9.6c13,0,23.6-10.6,23.6-23.6
					s-10.6-23.6-23.6-23.6c-5.3,0-9.6-4.3-9.6-9.6v-96.6h-47.3v19.2C3591.9-4835.8,3582.4-4820.7,3567.6-4813.7z M3688.9-4991.4
					h-80.2c-12.3,0-17.4,10.9-16.8,20.6h113.8C3705.8-4981.2,3702.5-4991.4,3688.9-4991.4z M3728.7-4911.4h-59.6
					c-5.3,0-9.6-4.3-9.6-9.6c0,0,0,0,0-0.1s0,0,0-0.1c0-5.3,4.3-9.6,9.6-9.6h36.7v-20.7h-113.8v20.7h35.2c5.3,0,9.6,4.3,9.6,9.6
					c0,0,0,0,0,0.1s0,0,0,0.1c0,5.3-4.3,9.6-9.6,9.6H3569c-15.3-0.2-15.7,20.6,0,20.6h159.7
					C3742.1-4890.8,3744-4911.5,3728.7-4911.4z M3730.2-4813.6c-14.8-7-24.4-22.2-24.4-38.7v-19.2h-47.3v88
					c19,4.4,33.3,21.5,33.3,41.8s-14.2,37.4-33.3,41.8v48.6h56.9c5.3,0,9.6,4.3,9.6,9.6c0.1,12.9,10.7,23.5,23.6,23.5
					c12.9,0,23.6-10.5,23.6-23.5c0-5.3,4.3-9.6,9.6-9.6h56.6C3835.1-4720.6,3793.3-4783.6,3730.2-4813.6z"/>
				<g>
					<path d="M3648.8-4411.6c-5.3,0-9.6,4.3-9.6,9.6v39.9c0,5.3,4.3,9.6,9.6,9.6s9.6-4.3,9.6-9.6v-39.9
						C3658.5-4407.3,3654.2-4411.6,3648.8-4411.6z"/>
					<path d="M3783.8-4447.8c-4.6,2.6-6.2,8.6-3.5,13.2l20,34.6c2.7,4.6,8.6,6.2,13.2,3.5c4.6-2.7,6.2-8.6,3.5-13.2l-20-34.6
						C3795.1-4447.3,3789-4450.7,3783.8-4447.8z"/>
					<g>
						<path d="M3882.5-4546.5c-2.7,4.6-1.1,10.5,3.5,13.2l34.6,20c4.6,2.7,10.5,1.1,13.2-3.5c2.7-4.6,1.1-10.5-3.5-13.2l-34.6-20
							C3890.2-4553.3,3884.3-4549.6,3882.5-4546.5z"/>
						<path d="M3363.9-4846c-2.5,4.7-1.1,10.5,3.5,13.2l34.6,20c4.6,2.7,10.5,1.1,13.2-3.5c2.7-4.6,1.1-10.5-3.5-13.2l-34.6-20
							C3371.4-4852.5,3366.3-4850.7,3363.9-4846z"/>
					</g>
					<path d="M3500.7-4444.2l-20,34.6c-2.7,4.6-1.1,10.5,3.5,13.2c4.6,2.7,10.5,1.1,13.2-3.5l20-34.6c2.7-4.6,1-10.3-3.5-13.2
						C3508.7-4451.1,3502.5-4447.3,3500.7-4444.2z"/>
					<g>
						<path d="M3402-4550.1l-34.6,20c-4.6,2.7-6.2,8.6-3.5,13.2c2.7,4.6,8.6,6.2,13.2,3.5l34.6-20c4.6-2.7,6.9-9,3.5-13.2
							C3411-4551.7,3406.8-4552.3,3402-4550.1z"/>
						<path d="M3920.7-4849.5l-34.6,20c-4.6,2.7-6.2,8.6-3.5,13.2c2.7,4.6,8.6,6.2,13.2,3.5l34.6-20c4.6-2.7,6.4-8.7,3.5-13.2
							C3930.7-4850.8,3926.2-4852.8,3920.7-4849.5z"/>
					</g>
					<g>
						<path d="M3369.3-4691.1h-39.9c-5.3,0-9.6,4.3-9.6,9.6c0,5.3,4.3,9.6,9.6,9.6h39.9c5.3,0,9.6-4.3,9.6-9.6
							C3379-4686.8,3374.7-4691.1,3369.3-4691.1z"/>
						<path d="M3968.3-4691.1h-39.9c-5.3,0-9.6,4.3-9.6,9.6c0,5.3,4.3,9.6,9.6,9.6h39.9c5.3,0,9.6-4.3,9.6-9.6
							C3977.9-4686.8,3973.6-4691.1,3968.3-4691.1z"/>
					</g>
				</g>
			</g>
		</g>
		<g>
			<g id="L1_9_12_" transform="matrix(0.11717651784420013 0 0 0.11717651784420013 61 60)">
				<path d="M7667.5-4532.1c-2.8,4.5-8.7,5.9-13.3,3.1c-4.5-2.8-5.9-8.7-3.1-13.3c16.7-27.1,26.2-57.9,27.9-89.7h-48.1
					c-4.5,18.9-21.6,33.1-41.8,33.1c-20.2,0-37.3-14.1-41.8-33.1h-48.4v56.7c0,5.3-4.3,9.6-9.6,9.6c-13,0-23.6,10.6-23.6,23.6
					c0,13,10.6,23.6,23.6,23.6c5.3,0,9.6,4.3,9.6,9.6v56.7c48.6-2.4,93.6-22.9,127.6-58.3c4.5-3.9,9.1-4,13.6-0.3
					c3.8,3.7,4,9.8,0.3,13.6c-39.8,41.6-93.5,64.5-151,64.5c0,0-0.1,0-0.1,0c0,0-0.1,0-0.1,0c-50.9,0-99.8-18.4-137.9-51.7
					c-4-3.5-4.4-9.6-0.9-13.6c3.5-4,9.6-4.4,13.6-0.9c32.2,28.2,72.9,44.6,115.7,46.7v-48.1c-19-4.4-33.3-21.5-33.3-41.8
					s14.2-37.4,33.3-41.8v-48.1h-56.9c-5.3,0-9.6-4.3-9.6-9.6v-0.2c0-13-10.6-23.6-23.6-23.6c-13,0-23.6,10.6-23.6,23.6v0.2
					c0,5.3-4.3,9.6-9.6,9.6h-56.7c1.9,37.8,14.7,73.5,37.3,103.8c3.2,4.3,2.3,10.3-2,13.5c-4.3,3.2-10.3,2.3-13.5-2
					c-27-36.2-41.3-79.4-41.4-125c-1.9-79.5,48.8-155.8,119.8-189.5c8.1-3.8,13.3-12.1,13.3-21.2v-19.2c-19.8,0-33.3-10.6-33.3-29.6
					c0-19,13.1-29.6,33.3-29.6v-43.9c0-19.1,17.1-36.1,36.1-36.1h80.2c19,0,36.1,17,36.1,36.1v43.9c22.6,0,33.3,12,33.3,29.6
					c0,18.4-11.6,29.6-33.3,29.6v19.2c0,9.1,5.2,17.4,13.4,21.2c73,34.6,118.5,109.2,119.7,189.5
					C7698.5-4602.8,7687.7-4565,7667.5-4532.1L7667.5-4532.1z M7407.9-4813.7c-63.2,30-105,93-108.5,162.4h48
					c4.3-19.2,21.4-33.5,41.9-33.5c20.4,0,37.6,14.4,41.9,33.5h48.3v-57.1c0-5.3,4.3-9.6,9.6-9.6c13,0,23.6-10.6,23.6-23.6
					s-10.6-23.6-23.6-23.6c-5.3,0-9.6-4.3-9.6-9.6v-96.6h-47.3v19.2C7432.3-4835.8,7422.7-4820.7,7407.9-4813.7z M7529.3-4991.4
					h-80.2c-12.3,0-17.4,10.9-16.8,20.6h113.8C7546.1-4981.2,7542.9-4991.4,7529.3-4991.4z M7569-4911.4h-59.6
					c-5.3,0-9.6-4.3-9.6-9.6c0,0,0,0,0-0.1s0,0,0-0.1c0-5.3,4.3-9.6,9.6-9.6h36.7v-20.7h-113.8v20.7h35.2c5.3,0,9.6,4.3,9.6,9.6
					c0,0,0,0,0,0.1s0,0,0,0.1c0,5.3-4.3,9.6-9.6,9.6h-58.1c-15.3-0.2-15.7,20.6,0,20.6h159.7
					C7582.4-4890.8,7584.3-4911.5,7569-4911.4z M7570.5-4813.6c-14.8-7-24.4-22.2-24.4-38.7v-19.2h-47.3v88
					c19,4.4,33.3,21.5,33.3,41.8s-14.2,37.4-33.3,41.8v48.6h56.9c5.3,0,9.6,4.3,9.6,9.6c0.1,12.9,10.7,23.5,23.6,23.5
					c12.9,0,23.6-10.5,23.6-23.5c0-5.3,4.3-9.6,9.6-9.6h56.6C7675.5-4720.6,7633.7-4783.6,7570.5-4813.6z"/>
				<g>
					<path d="M7489.2-4411.6c-5.3,0-9.6,4.3-9.6,9.6v39.9c0,5.3,4.3,9.6,9.6,9.6s9.6-4.3,9.6-9.6v-39.9
						C7498.8-4407.3,7494.5-4411.6,7489.2-4411.6z"/>
					<path d="M7624.1-4447.8c-4.6,2.6-6.2,8.6-3.5,13.2l20,34.6c2.7,4.6,8.6,6.2,13.2,3.5c4.6-2.7,6.2-8.6,3.5-13.2l-20-34.6
						C7635.5-4447.3,7629.3-4450.7,7624.1-4447.8z"/>
					<g>
						<path d="M7722.9-4546.5c-2.7,4.6-1.1,10.5,3.5,13.2l34.6,20c4.6,2.7,10.5,1.1,13.2-3.5c2.7-4.6,1.1-10.5-3.5-13.2l-34.6-20
							C7730.6-4553.3,7724.7-4549.6,7722.9-4546.5z"/>
						<path d="M7204.2-4846c-2.5,4.7-1.1,10.5,3.5,13.2l34.6,20c4.6,2.7,10.5,1.1,13.2-3.5c2.7-4.6,1.1-10.5-3.5-13.2l-34.6-20
							C7211.8-4852.5,7206.6-4850.7,7204.2-4846z"/>
					</g>
					<path d="M7341.1-4444.2l-20,34.6c-2.7,4.6-1.1,10.5,3.5,13.2c4.6,2.7,10.5,1.1,13.2-3.5l20-34.6c2.7-4.6,1-10.3-3.5-13.2
						C7349-4451.1,7342.9-4447.3,7341.1-4444.2z"/>
					<g>
						<path d="M7242.3-4550.1l-34.6,20c-4.6,2.7-6.2,8.6-3.5,13.2c2.7,4.6,8.6,6.2,13.2,3.5l34.6-20c4.6-2.7,6.9-9,3.5-13.2
							C7251.3-4551.7,7247.1-4552.3,7242.3-4550.1z"/>
						<path d="M7761-4849.5l-34.6,20c-4.6,2.7-6.2,8.6-3.5,13.2c2.7,4.6,8.6,6.2,13.2,3.5l34.6-20c4.6-2.7,6.4-8.7,3.5-13.2
							C7771.1-4850.8,7766.6-4852.8,7761-4849.5z"/>
					</g>
					<g>
						<path d="M7209.7-4691.1h-39.9c-5.3,0-9.6,4.3-9.6,9.6c0,5.3,4.3,9.6,9.6,9.6h39.9c5.3,0,9.6-4.3,9.6-9.6
							C7219.3-4686.8,7215-4691.1,7209.7-4691.1z"/>
						<path d="M7808.6-4691.1h-39.9c-5.3,0-9.6,4.3-9.6,9.6c0,5.3,4.3,9.6,9.6,9.6h39.9c5.3,0,9.6-4.3,9.6-9.6
							C7818.3-4686.8,7813.9-4691.1,7808.6-4691.1z"/>
					</g>
				</g>
			</g>
		</g>
		<g>
			<g id="L1_9_11_" transform="matrix(0.11717651784420013 0 0 0.11717651784420013 61 60)">
				<path d="M-13.2-8372.5c-2.8,4.5-8.7,5.9-13.3,3.1c-4.5-2.8-5.9-8.7-3.1-13.3c16.7-27.1,26.2-57.9,27.9-89.7h-48.1
					c-4.5,18.9-21.6,33.1-41.8,33.1c-20.2,0-37.3-14.1-41.8-33.1h-48.4v56.7c0,5.3-4.3,9.6-9.6,9.6c-13,0-23.6,10.6-23.6,23.6
					s10.6,23.6,23.6,23.6c5.3,0,9.6,4.3,9.6,9.6v56.7c48.6-2.4,93.6-22.9,127.6-58.3c4.5-3.9,9.1-4,13.6-0.3c3.8,3.7,4,9.8,0.3,13.6
					c-39.8,41.6-93.5,64.5-151,64.5c0,0-0.1,0-0.1,0c0,0-0.1,0-0.1,0c-50.9,0-99.8-18.4-137.9-51.7c-4-3.5-4.4-9.6-0.9-13.6
					c3.5-4,9.6-4.4,13.6-0.9c32.2,28.2,72.9,44.6,115.7,46.7v-48.1c-19-4.4-33.3-21.5-33.3-41.8c0-20.4,14.2-37.4,33.3-41.8v-48.1
					h-56.9c-5.3,0-9.6-4.3-9.6-9.6v-0.2c0-13-10.6-23.6-23.6-23.6c-13,0-23.6,10.6-23.6,23.6v0.2c0,5.3-4.3,9.6-9.6,9.6h-56.7
					c1.9,37.8,14.7,73.5,37.3,103.8c3.2,4.3,2.3,10.3-2,13.5c-4.3,3.2-10.3,2.3-13.5-2c-27-36.2-41.3-79.4-41.4-125
					c-1.9-79.5,48.8-155.8,119.8-189.5c8.1-3.8,13.3-12.1,13.3-21.2v-19.2c-19.8,0-33.3-10.6-33.3-29.6c0-19,13.1-29.6,33.3-29.6
					v-43.9c0-19.1,17.1-36.1,36.1-36.1h80.2c19,0,36.1,17,36.1,36.1v43.9c22.6,0,33.3,12,33.3,29.6c0,18.4-11.6,29.6-33.3,29.6v19.2
					c0,9.1,5.2,17.4,13.4,21.2c73,34.6,118.5,109.2,119.7,189.5C17.8-8443.2,7.1-8405.3-13.2-8372.5L-13.2-8372.5z M-272.7-8654
					c-63.2,30-105,93-108.5,162.4h48c4.3-19.2,21.4-33.5,41.9-33.5c20.4,0,37.6,14.4,41.9,33.5h48.3v-57.1c0-5.3,4.3-9.6,9.6-9.6
					c13,0,23.6-10.6,23.6-23.6c0-13-10.6-23.6-23.6-23.6c-5.3,0-9.6-4.3-9.6-9.6v-96.6h-47.3v19.2
					C-248.4-8676.2-258-8661-272.7-8654z M-151.4-8831.8h-80.2c-12.3,0-17.4,10.9-16.8,20.6h113.8
					C-134.6-8821.5-137.8-8831.8-151.4-8831.8z M-111.6-8751.8h-59.6c-5.3,0-9.6-4.3-9.6-9.6c0,0,0,0,0-0.1c0,0,0,0,0-0.1
					c0-5.3,4.3-9.6,9.6-9.6h36.7v-20.7h-113.8v20.7h35.2c5.3,0,9.6,4.3,9.6,9.6c0,0,0,0,0,0.1c0,0,0,0,0,0.1c0,5.3-4.3,9.6-9.6,9.6
					h-58.1c-15.3-0.2-15.7,20.6,0,20.6h159.7C-98.3-8731.1-96.4-8751.8-111.6-8751.8z M-110.2-8654c-14.8-7-24.4-22.2-24.4-38.7
					v-19.2h-47.3v88c19,4.4,33.3,21.5,33.3,41.8s-14.2,37.4-33.3,41.8v48.6h56.9c5.3,0,9.6,4.3,9.6,9.6
					c0.1,12.9,10.7,23.5,23.6,23.5c12.9,0,23.6-10.5,23.6-23.5c0-5.3,4.3-9.6,9.6-9.6h56.6C-5.2-8561-47-8624-110.2-8654z"/>
				<g>
					<path d="M-191.5-8252c-5.3,0-9.6,4.3-9.6,9.6v39.9c0,5.3,4.3,9.6,9.6,9.6s9.6-4.3,9.6-9.6v-39.9
						C-181.9-8247.6-186.2-8252-191.5-8252z"/>
					<path d="M-56.6-8288.1c-4.6,2.6-6.2,8.6-3.5,13.2l20,34.6c2.7,4.6,8.6,6.2,13.2,3.5c4.6-2.7,6.2-8.6,3.5-13.2l-20-34.6
						C-45.2-8287.7-51.4-8291.1-56.6-8288.1z"/>
					<g>
						<path d="M42.2-8386.9c-2.7,4.6-1.1,10.5,3.5,13.2l34.6,20c4.6,2.7,10.5,1.1,13.2-3.5c2.7-4.6,1.1-10.5-3.5-13.2l-34.6-20
							C49.9-8393.6,44-8390,42.2-8386.9z"/>
						<path d="M-476.5-8686.3c-2.5,4.7-1.1,10.5,3.5,13.2l34.6,20c4.6,2.7,10.5,1.1,13.2-3.5c2.7-4.6,1.1-10.5-3.5-13.2l-34.6-20
							C-468.9-8692.9-474-8691-476.5-8686.3z"/>
					</g>
					<path d="M-339.6-8284.6l-20,34.6c-2.7,4.6-1.1,10.5,3.5,13.2c4.6,2.7,10.5,1.1,13.2-3.5l20-34.6c2.7-4.6,1-10.3-3.5-13.2
						C-331.6-8291.4-337.8-8287.7-339.6-8284.6z"/>
					<g>
						<path d="M-438.4-8390.4l-34.6,20c-4.6,2.7-6.2,8.6-3.5,13.2c2.7,4.6,8.6,6.2,13.2,3.5l34.6-20c4.6-2.7,6.9-9,3.5-13.2
							C-429.4-8392-433.5-8392.7-438.4-8390.4z"/>
						<path d="M80.3-8689.9l-34.6,20c-4.6,2.7-6.2,8.6-3.5,13.2c2.7,4.6,8.6,6.2,13.2,3.5l34.6-20c4.6-2.7,6.4-8.7,3.5-13.2
							C90.4-8691.2,85.9-8693.2,80.3-8689.9z"/>
					</g>
					<g>
						<path d="M-471-8531.5h-39.9c-5.3,0-9.6,4.3-9.6,9.6c0,5.3,4.3,9.6,9.6,9.6h39.9c5.3,0,9.6-4.3,9.6-9.6
							C-461.4-8527.1-465.7-8531.5-471-8531.5z"/>
						<path d="M127.9-8531.5H88c-5.3,0-9.6,4.3-9.6,9.6c0,5.3,4.3,9.6,9.6,9.6h39.9c5.3,0,9.6-4.3,9.6-9.6
							C137.6-8527.1,133.3-8531.5,127.9-8531.5z"/>
					</g>
				</g>
			</g>
		</g>
		<g>
			<g id="L1_9_10_" transform="matrix(0.11717651784420013 0 0 0.11717651784420013 61 60)">
				<path d="M3827.2-8372.5c-2.8,4.5-8.7,5.9-13.3,3.1c-4.5-2.8-5.9-8.7-3.1-13.3c16.7-27.1,26.2-57.9,27.9-89.7h-48.1
					c-4.5,18.9-21.6,33.1-41.8,33.1c-20.2,0-37.3-14.1-41.8-33.1h-48.4v56.7c0,5.3-4.3,9.6-9.6,9.6c-13,0-23.6,10.6-23.6,23.6
					s10.6,23.6,23.6,23.6c5.3,0,9.6,4.3,9.6,9.6v56.7c48.6-2.4,93.6-22.9,127.6-58.3c4.5-3.9,9.1-4,13.6-0.3c3.8,3.7,4,9.8,0.3,13.6
					c-39.8,41.6-93.5,64.5-151,64.5c0,0-0.1,0-0.1,0c0,0-0.1,0-0.1,0c-50.9,0-99.8-18.4-137.9-51.7c-4-3.5-4.4-9.6-0.9-13.6
					c3.5-4,9.6-4.4,13.6-0.9c32.2,28.2,72.9,44.6,115.7,46.7v-48.1c-19-4.4-33.3-21.5-33.3-41.8c0-20.4,14.2-37.4,33.3-41.8v-48.1
					h-56.9c-5.3,0-9.6-4.3-9.6-9.6v-0.2c0-13-10.6-23.6-23.6-23.6c-13,0-23.6,10.6-23.6,23.6v0.2c0,5.3-4.3,9.6-9.6,9.6h-56.7
					c1.9,37.8,14.7,73.5,37.3,103.8c3.2,4.3,2.3,10.3-2,13.5c-4.3,3.2-10.3,2.3-13.5-2c-27-36.2-41.3-79.4-41.4-125
					c-1.9-79.5,48.8-155.8,119.8-189.5c8.1-3.8,13.3-12.1,13.3-21.2v-19.2c-19.8,0-33.3-10.6-33.3-29.6c0-19,13.1-29.6,33.3-29.6
					v-43.9c0-19.1,17.1-36.1,36.1-36.1h80.2c19,0,36.1,17,36.1,36.1v43.9c22.6,0,33.3,12,33.3,29.6c0,18.4-11.6,29.6-33.3,29.6v19.2
					c0,9.1,5.2,17.4,13.4,21.2c73,34.6,118.5,109.2,119.7,189.5C3858.1-8443.2,3847.4-8405.3,3827.2-8372.5L3827.2-8372.5z
					 M3567.6-8654c-63.2,30-105,93-108.5,162.4h48c4.3-19.2,21.4-33.5,41.9-33.5c20.4,0,37.6,14.4,41.9,33.5h48.3v-57.1
					c0-5.3,4.3-9.6,9.6-9.6c13,0,23.6-10.6,23.6-23.6c0-13-10.6-23.6-23.6-23.6c-5.3,0-9.6-4.3-9.6-9.6v-96.6h-47.3v19.2
					C3591.9-8676.2,3582.4-8661,3567.6-8654z M3688.9-8831.8h-80.2c-12.3,0-17.4,10.9-16.8,20.6h113.8
					C3705.8-8821.5,3702.5-8831.8,3688.9-8831.8z M3728.7-8751.8h-59.6c-5.3,0-9.6-4.3-9.6-9.6c0,0,0,0,0-0.1c0,0,0,0,0-0.1
					c0-5.3,4.3-9.6,9.6-9.6h36.7v-20.7h-113.8v20.7h35.2c5.3,0,9.6,4.3,9.6,9.6c0,0,0,0,0,0.1c0,0,0,0,0,0.1c0,5.3-4.3,9.6-9.6,9.6
					H3569c-15.3-0.2-15.7,20.6,0,20.6h159.7C3742.1-8731.1,3744-8751.8,3728.7-8751.8z M3730.2-8654c-14.8-7-24.4-22.2-24.4-38.7
					v-19.2h-47.3v88c19,4.4,33.3,21.5,33.3,41.8s-14.2,37.4-33.3,41.8v48.6h56.9c5.3,0,9.6,4.3,9.6,9.6
					c0.1,12.9,10.7,23.5,23.6,23.5c12.9,0,23.6-10.5,23.6-23.5c0-5.3,4.3-9.6,9.6-9.6h56.6C3835.1-8561,3793.3-8624,3730.2-8654z"/>
				<g>
					<path d="M3648.8-8252c-5.3,0-9.6,4.3-9.6,9.6v39.9c0,5.3,4.3,9.6,9.6,9.6s9.6-4.3,9.6-9.6v-39.9
						C3658.5-8247.6,3654.2-8252,3648.8-8252z"/>
					<path d="M3783.8-8288.1c-4.6,2.6-6.2,8.6-3.5,13.2l20,34.6c2.7,4.6,8.6,6.2,13.2,3.5c4.6-2.7,6.2-8.6,3.5-13.2l-20-34.6
						C3795.1-8287.7,3789-8291.1,3783.8-8288.1z"/>
					<g>
						<path d="M3882.5-8386.9c-2.7,4.6-1.1,10.5,3.5,13.2l34.6,20c4.6,2.7,10.5,1.1,13.2-3.5c2.7-4.6,1.1-10.5-3.5-13.2l-34.6-20
							C3890.2-8393.6,3884.3-8390,3882.5-8386.9z"/>
						<path d="M3363.9-8686.3c-2.5,4.7-1.1,10.5,3.5,13.2l34.6,20c4.6,2.7,10.5,1.1,13.2-3.5c2.7-4.6,1.1-10.5-3.5-13.2l-34.6-20
							C3371.4-8692.9,3366.3-8691,3363.9-8686.3z"/>
					</g>
					<path d="M3500.7-8284.6l-20,34.6c-2.7,4.6-1.1,10.5,3.5,13.2c4.6,2.7,10.5,1.1,13.2-3.5l20-34.6c2.7-4.6,1-10.3-3.5-13.2
						C3508.7-8291.4,3502.5-8287.7,3500.7-8284.6z"/>
					<g>
						<path d="M3402-8390.4l-34.6,20c-4.6,2.7-6.2,8.6-3.5,13.2c2.7,4.6,8.6,6.2,13.2,3.5l34.6-20c4.6-2.7,6.9-9,3.5-13.2
							C3411-8392,3406.8-8392.7,3402-8390.4z"/>
						<path d="M3920.7-8689.9l-34.6,20c-4.6,2.7-6.2,8.6-3.5,13.2c2.7,4.6,8.6,6.2,13.2,3.5l34.6-20c4.6-2.7,6.4-8.7,3.5-13.2
							C3930.7-8691.2,3926.2-8693.2,3920.7-8689.9z"/>
					</g>
					<g>
						<path d="M3369.3-8531.5h-39.9c-5.3,0-9.6,4.3-9.6,9.6c0,5.3,4.3,9.6,9.6,9.6h39.9c5.3,0,9.6-4.3,9.6-9.6
							C3379-8527.1,3374.7-8531.5,3369.3-8531.5z"/>
						<path d="M3968.3-8531.5h-39.9c-5.3,0-9.6,4.3-9.6,9.6c0,5.3,4.3,9.6,9.6,9.6h39.9c5.3,0,9.6-4.3,9.6-9.6
							C3977.9-8527.1,3973.6-8531.5,3968.3-8531.5z"/>
					</g>
				</g>
			</g>
		</g>
		<g>
			<g id="L1_9_9_" transform="matrix(0.11717651784420013 0 0 0.11717651784420013 61 60)">
				<path d="M7667.5-8372.5c-2.8,4.5-8.7,5.9-13.3,3.1c-4.5-2.8-5.9-8.7-3.1-13.3c16.7-27.1,26.2-57.9,27.9-89.7h-48.1
					c-4.5,18.9-21.6,33.1-41.8,33.1c-20.2,0-37.3-14.1-41.8-33.1h-48.4v56.7c0,5.3-4.3,9.6-9.6,9.6c-13,0-23.6,10.6-23.6,23.6
					s10.6,23.6,23.6,23.6c5.3,0,9.6,4.3,9.6,9.6v56.7c48.6-2.4,93.6-22.9,127.6-58.3c4.5-3.9,9.1-4,13.6-0.3c3.8,3.7,4,9.8,0.3,13.6
					c-39.8,41.6-93.5,64.5-151,64.5c0,0-0.1,0-0.1,0c0,0-0.1,0-0.1,0c-50.9,0-99.8-18.4-137.9-51.7c-4-3.5-4.4-9.6-0.9-13.6
					c3.5-4,9.6-4.4,13.6-0.9c32.2,28.2,72.9,44.6,115.7,46.7v-48.1c-19-4.4-33.3-21.5-33.3-41.8c0-20.4,14.2-37.4,33.3-41.8v-48.1
					h-56.9c-5.3,0-9.6-4.3-9.6-9.6v-0.2c0-13-10.6-23.6-23.6-23.6c-13,0-23.6,10.6-23.6,23.6v0.2c0,5.3-4.3,9.6-9.6,9.6h-56.7
					c1.9,37.8,14.7,73.5,37.3,103.8c3.2,4.3,2.3,10.3-2,13.5c-4.3,3.2-10.3,2.3-13.5-2c-27-36.2-41.3-79.4-41.4-125
					c-1.9-79.5,48.8-155.8,119.8-189.5c8.1-3.8,13.3-12.1,13.3-21.2v-19.2c-19.8,0-33.3-10.6-33.3-29.6c0-19,13.1-29.6,33.3-29.6
					v-43.9c0-19.1,17.1-36.1,36.1-36.1h80.2c19,0,36.1,17,36.1,36.1v43.9c22.6,0,33.3,12,33.3,29.6c0,18.4-11.6,29.6-33.3,29.6v19.2
					c0,9.1,5.2,17.4,13.4,21.2c73,34.6,118.5,109.2,119.7,189.5C7698.5-8443.2,7687.7-8405.3,7667.5-8372.5L7667.5-8372.5z
					 M7407.9-8654c-63.2,30-105,93-108.5,162.4h48c4.3-19.2,21.4-33.5,41.9-33.5c20.4,0,37.6,14.4,41.9,33.5h48.3v-57.1
					c0-5.3,4.3-9.6,9.6-9.6c13,0,23.6-10.6,23.6-23.6c0-13-10.6-23.6-23.6-23.6c-5.3,0-9.6-4.3-9.6-9.6v-96.6h-47.3v19.2
					C7432.3-8676.2,7422.7-8661,7407.9-8654z M7529.3-8831.8h-80.2c-12.3,0-17.4,10.9-16.8,20.6h113.8
					C7546.1-8821.5,7542.9-8831.8,7529.3-8831.8z M7569-8751.8h-59.6c-5.3,0-9.6-4.3-9.6-9.6c0,0,0,0,0-0.1c0,0,0,0,0-0.1
					c0-5.3,4.3-9.6,9.6-9.6h36.7v-20.7h-113.8v20.7h35.2c5.3,0,9.6,4.3,9.6,9.6c0,0,0,0,0,0.1c0,0,0,0,0,0.1c0,5.3-4.3,9.6-9.6,9.6
					h-58.1c-15.3-0.2-15.7,20.6,0,20.6h159.7C7582.4-8731.1,7584.3-8751.8,7569-8751.8z M7570.5-8654c-14.8-7-24.4-22.2-24.4-38.7
					v-19.2h-47.3v88c19,4.4,33.3,21.5,33.3,41.8s-14.2,37.4-33.3,41.8v48.6h56.9c5.3,0,9.6,4.3,9.6,9.6
					c0.1,12.9,10.7,23.5,23.6,23.5c12.9,0,23.6-10.5,23.6-23.5c0-5.3,4.3-9.6,9.6-9.6h56.6C7675.5-8561,7633.7-8624,7570.5-8654z"/>
				<g>
					<path d="M7489.2-8252c-5.3,0-9.6,4.3-9.6,9.6v39.9c0,5.3,4.3,9.6,9.6,9.6s9.6-4.3,9.6-9.6v-39.9
						C7498.8-8247.6,7494.5-8252,7489.2-8252z"/>
					<path d="M7624.1-8288.1c-4.6,2.6-6.2,8.6-3.5,13.2l20,34.6c2.7,4.6,8.6,6.2,13.2,3.5c4.6-2.7,6.2-8.6,3.5-13.2l-20-34.6
						C7635.5-8287.7,7629.3-8291.1,7624.1-8288.1z"/>
					<g>
						<path d="M7722.9-8386.9c-2.7,4.6-1.1,10.5,3.5,13.2l34.6,20c4.6,2.7,10.5,1.1,13.2-3.5c2.7-4.6,1.1-10.5-3.5-13.2l-34.6-20
							C7730.6-8393.6,7724.7-8390,7722.9-8386.9z"/>
						<path d="M7204.2-8686.3c-2.5,4.7-1.1,10.5,3.5,13.2l34.6,20c4.6,2.7,10.5,1.1,13.2-3.5c2.7-4.6,1.1-10.5-3.5-13.2l-34.6-20
							C7211.8-8692.9,7206.6-8691,7204.2-8686.3z"/>
					</g>
					<path d="M7341.1-8284.6l-20,34.6c-2.7,4.6-1.1,10.5,3.5,13.2c4.6,2.7,10.5,1.1,13.2-3.5l20-34.6c2.7-4.6,1-10.3-3.5-13.2
						C7349-8291.4,7342.9-8287.7,7341.1-8284.6z"/>
					<g>
						<path d="M7242.3-8390.4l-34.6,20c-4.6,2.7-6.2,8.6-3.5,13.2c2.7,4.6,8.6,6.2,13.2,3.5l34.6-20c4.6-2.7,6.9-9,3.5-13.2
							C7251.3-8392,7247.1-8392.7,7242.3-8390.4z"/>
						<path d="M7761-8689.9l-34.6,20c-4.6,2.7-6.2,8.6-3.5,13.2c2.7,4.6,8.6,6.2,13.2,3.5l34.6-20c4.6-2.7,6.4-8.7,3.5-13.2
							C7771.1-8691.2,7766.6-8693.2,7761-8689.9z"/>
					</g>
					<g>
						<path d="M7209.7-8531.5h-39.9c-5.3,0-9.6,4.3-9.6,9.6c0,5.3,4.3,9.6,9.6,9.6h39.9c5.3,0,9.6-4.3,9.6-9.6
							C7219.3-8527.1,7215-8531.5,7209.7-8531.5z"/>
						<path d="M7808.6-8531.5h-39.9c-5.3,0-9.6,4.3-9.6,9.6c0,5.3,4.3,9.6,9.6,9.6h39.9c5.3,0,9.6-4.3,9.6-9.6
							C7818.3-8527.1,7813.9-8531.5,7808.6-8531.5z"/>
					</g>
				</g>
			</g>
		</g>
	</g>
</pattern>
<g fi:class="KUsePattern" class="st2">
	
		<pattern  id="SVGID_1_" xlink:href="#pattern_L1_6" patternTransform="matrix(1.2857 0 0 -1.2857 1860.5305 -18943.2129)"  class="st2">
	</pattern>
	<rect class="st3" width="2160" height="1080"/>
</g>
<g fi:class="KUsePattern" class="st2">
	
		<pattern  id="SVGID_2_" xlink:href="#pattern_L1_8" patternTransform="matrix(1.2857 0 0 -1.2857 1917.8367 -19116.834)"  class="st2">
	</pattern>
	<rect class="st4" width="2160" height="1080"/>
</g>
<g fi:class="KUsePattern" class="st2">
	
		<pattern  id="SVGID_3_" xlink:href="#pattern_L1_9" patternTransform="matrix(1.2857 0 0 -1.2857 1845.84 -19378.3867)"  class="st2">
	</pattern>
	<rect class="st5" width="2160" height="1080"/>
</g>
<g fi:class="KUsePattern" class="st2">
	
		<pattern  id="SVGID_4_" xlink:href="#pattern_L1_10" patternTransform="matrix(1.2857 0 0 -1.2857 1898.3672 -19639.9395)"  class="st2">
	</pattern>
	<rect class="st6" width="2160" height="1080"/>
</g>
</svg>
